<svg xmlns="http://www.w3.org/2000/svg" xmlns:xlink="http://www.w3.org/1999/xlink" version="1.1" width="540pt" height="960pt" viewBox="0 0 540 960">
<defs>
<clipPath id="clip_1">
<path transform="matrix(1,0,0,-1,0,960)" d="M0 .00018311H540V960.0002H0Z" fill-rule="evenodd"/>
</clipPath>
<clipPath id="clip_2">
<path transform="matrix(1,0,0,-1,0,960)" d="M0 .00036621H540V960.00039H0Z" fill-rule="evenodd"/>
</clipPath>
<clipPath id="clip_3">
<path transform="matrix(1,0,0,-1,0,960)" d="M0 .00036621H540V960.00039H0Z" fill-rule="evenodd"/>
</clipPath>
<clipPath id="clip_4">
<path transform="matrix(1,0,0,-1,0,960)" d="M0 .00018311H540V960.0002H0Z" fill-rule="evenodd"/>
</clipPath>
<clipPath id="clip_5">
<path transform="matrix(1,0,0,-1,0,960)" d="M0 .00018311H540V960.0002H0Z" fill-rule="evenodd"/>
</clipPath>
<clipPath id="clip_6">
<path transform="matrix(1,0,0,-1,0,960)" d="M0 .00018311H540V960.0002H0Z" fill-rule="evenodd"/>
</clipPath>
<clipPath id="clip_7">
<path transform="matrix(1,0,0,-1,0,960)" d="M0 .00018311H540V960.0002H0Z" fill-rule="evenodd"/>
</clipPath>
<clipPath id="clip_8">
<path transform="matrix(1,0,0,-1,0,960)" d="M-.000007629 .00018311H540V960.0002H-.000007629Z" fill-rule="evenodd"/>
</clipPath>
<clipPath id="clip_9">
<path transform="matrix(1,0,0,-1,0,960)" d="M-.000007629 .00018311H540V960.0002H-.000007629Z" fill-rule="evenodd"/>
</clipPath>
<clipPath id="clip_10">
<path transform="matrix(1,0,0,-1,0,960)" d="M-.000030518 .00018311H539.99996V960.0002H-.000030518Z" fill-rule="evenodd"/>
</clipPath>
<clipPath id="clip_11">
<path transform="matrix(1,0,0,-1,0,960)" d="M-.000030518 .00018311H539.99996V960.0002H-.000030518Z" fill-rule="evenodd"/>
</clipPath>
<clipPath id="clip_12">
<path transform="matrix(1,0,0,-1,0,960)" d="M-.000030518 .00018311H539.99996V960.0002H-.000030518Z" fill-rule="evenodd"/>
</clipPath>
<clipPath id="clip_13">
<path transform="matrix(1,0,0,-1,0,960)" d="M-.000030518 .00018311H539.99996V960.0002H-.000030518Z" fill-rule="evenodd"/>
</clipPath>
<clipPath id="clip_14">
<path transform="matrix(1,0,0,-1,0,960)" d="M-.000007629 .00018311H540V960.0002H-.000007629Z" fill-rule="evenodd"/>
</clipPath>
<clipPath id="clip_15">
<path transform="matrix(1,0,0,-1,0,960)" d="M-.000007629 .00018311H540V960.0002H-.000007629Z" fill-rule="evenodd"/>
</clipPath>
<clipPath id="clip_16">
<path transform="matrix(1,0,0,-1,0,960)" d="M-.000003815 .00018311H540V960.0002H-.000003815Z" fill-rule="evenodd"/>
</clipPath>
<clipPath id="clip_17">
<path transform="matrix(1,0,0,-1,0,960)" d="M-.000003815 .00018311H540V960.0002H-.000003815Z" fill-rule="evenodd"/>
</clipPath>
<clipPath id="clip_18">
<path transform="matrix(1,0,0,-1,0,960)" d="M0 .00018311H540V960.0002H0Z" fill-rule="evenodd"/>
</clipPath>
<clipPath id="clip_19">
<path transform="matrix(1,0,0,-1,0,960)" d="M0 .00018311H540V960.0002H0Z" fill-rule="evenodd"/>
</clipPath>
<clipPath id="clip_20">
<path transform="matrix(1,0,0,-1,0,960)" d="M-.000030518 .00018311H539.99996V960.0002H-.000030518Z" fill-rule="evenodd"/>
</clipPath>
<clipPath id="clip_21">
<path transform="matrix(1,0,0,-1,0,960)" d="M-.000030518 .00018311H539.99996V960.0002H-.000030518Z" fill-rule="evenodd"/>
</clipPath>
<clipPath id="clip_22">
<path transform="matrix(1,0,0,-1,0,960)" d="M-.000030518 .00018311H539.99996V960.0002H-.000030518Z" fill-rule="evenodd"/>
</clipPath>
<clipPath id="clip_23">
<path transform="matrix(1,0,0,-1,0,960)" d="M-.000030518 .00018311H539.99996V960.0002H-.000030518Z" fill-rule="evenodd"/>
</clipPath>
<clipPath id="clip_24">
<path transform="matrix(1,0,0,-1,0,960)" d="M0 .00018311H540V960.0002H0Z" fill-rule="evenodd"/>
</clipPath>
<clipPath id="clip_25">
<path transform="matrix(1,0,0,-1,0,960)" d="M0 .00018311H540V960.0002H0Z" fill-rule="evenodd"/>
</clipPath>
<clipPath id="clip_26">
<path transform="matrix(1,0,0,-1,0,960)" d="M-.000007629 .00018311H540V960.0002H-.000007629Z" fill-rule="evenodd"/>
</clipPath>
<clipPath id="clip_27">
<path transform="matrix(1,0,0,-1,0,960)" d="M-.000007629 .00018311H540V960.0002H-.000007629Z" fill-rule="evenodd"/>
</clipPath>
<clipPath id="clip_28">
<path transform="matrix(1,0,0,-1,0,960)" d="M0 .00018311H540V960.0002H0Z" fill-rule="evenodd"/>
</clipPath>
<clipPath id="clip_29">
<path transform="matrix(1,0,0,-1,0,960)" d="M0 .00018311H540V960.0002H0Z" fill-rule="evenodd"/>
</clipPath>
<clipPath id="clip_30">
<path transform="matrix(1,0,0,-1,0,960)" d="M0 .00018311H540V960.0002H0Z" fill-rule="evenodd"/>
</clipPath>
<clipPath id="clip_31">
<path transform="matrix(1,0,0,-1,0,960)" d="M0 .00018311H540V960.0002H0Z" fill-rule="evenodd"/>
</clipPath>
<clipPath id="clip_32">
<path transform="matrix(1,0,0,-1,0,960)" d="M0 .00018311H540V960.0002H0Z" fill-rule="evenodd"/>
</clipPath>
<clipPath id="clip_33">
<path transform="matrix(1,0,0,-1,0,960)" d="M0 .00018311H540V960.0002H0Z" fill-rule="evenodd"/>
</clipPath>
<clipPath id="clip_34">
<path transform="matrix(1,0,0,-1,0,960)" d="M0 .00018311H540V960.0002H0Z" fill-rule="evenodd"/>
</clipPath>
<clipPath id="clip_35">
<path transform="matrix(1,0,0,-1,0,960)" d="M0 .00018311H540V960.0002H0Z" fill-rule="evenodd"/>
</clipPath>
<clipPath id="clip_36">
<path transform="matrix(1,0,0,-1,0,960)" d="M0 .00018311H540V960.0002H0Z" fill-rule="evenodd"/>
</clipPath>
<clipPath id="clip_37">
<path transform="matrix(1,0,0,-1,0,960)" d="M0 .00018311H540V960.0002H0Z" fill-rule="evenodd"/>
</clipPath>
<clipPath id="clip_38">
<path transform="matrix(1,0,0,-1,0,960)" d="M-.000003815 .00018311H540V960.0002H-.000003815Z" fill-rule="evenodd"/>
</clipPath>
<clipPath id="clip_39">
<path transform="matrix(1,0,0,-1,0,960)" d="M-.000003815 .00018311H540V960.0002H-.000003815Z" fill-rule="evenodd"/>
</clipPath>
<clipPath id="clip_40">
<path transform="matrix(1,0,0,-1,0,960)" d="M-.000015259 .00018311H540V960.0002H-.000015259Z" fill-rule="evenodd"/>
</clipPath>
<clipPath id="clip_41">
<path transform="matrix(1,0,0,-1,0,960)" d="M-.000015259 .00018311H540V960.0002H-.000015259Z" fill-rule="evenodd"/>
</clipPath>
<clipPath id="clip_42">
<path transform="matrix(1,0,0,-1,0,960)" d="M0 .00018311H540V960.0002H0Z" fill-rule="evenodd"/>
</clipPath>
<clipPath id="clip_43">
<path transform="matrix(1,0,0,-1,0,960)" d="M0 .00018311H540V960.0002H0Z" fill-rule="evenodd"/>
</clipPath>
<clipPath id="clip_44">
<path transform="matrix(1,0,0,-1,0,960)" d="M0 .00018311H540V960.0002H0Z" fill-rule="evenodd"/>
</clipPath>
<clipPath id="clip_45">
<path transform="matrix(1,0,0,-1,0,960)" d="M0 .00018311H540V960.0002H0Z" fill-rule="evenodd"/>
</clipPath>
<clipPath id="clip_46">
<path transform="matrix(1,0,0,-1,0,960)" d="M-.000030518 .00018311H539.99996V960.0002H-.000030518Z" fill-rule="evenodd"/>
</clipPath>
<clipPath id="clip_47">
<path transform="matrix(1,0,0,-1,0,960)" d="M-.000030518 .00018311H539.99996V960.0002H-.000030518Z" fill-rule="evenodd"/>
</clipPath>
<clipPath id="clip_48">
<path transform="matrix(1,0,0,-1,0,960)" d="M.000008047 0H540V960H.000008047Z" fill-rule="evenodd"/>
</clipPath>
<path id="font_49_43" d="M.03173828 .6669922H.26123048L.19482422 .6020508V.39105226C.2023112 .38975016 .21110027 .3887736 .2211914 .38812257V.59716799L.27441407 .64990237 .2841797 .6411133 .23388672 .5913086V.38763429L.25 .3861847C.2750651 .38393656 .2993164 .3828125 .3227539 .3828125 .35660807 .3828125 .3857422 .38441978 .41015626 .38763429V.6123047L.35058595 .6669922H.5761719L.50878909 .6020508V.09283447L.5678711 .040039064H.34326173L.41015626 .09724426V.30451966C.3828125 .29812113 .35465495 .29492188 .3256836 .29492188 .29833985 .29492188 .27001954 .29633586 .24072266 .29916383L.23388672 .29963685V.09283447L.31445313 0H.06201172L.049316408 .0126953129H.28759767L.2211914 .085998538V.31088258L.23535156 .31001283C.2783203 .30711366 .30940757 .30566407 .32861329 .30566407 .35986329 .30566407 .38704429 .30968223 .41015626 .3177185V.33532716C.37955729 .33052574 .34391276 .328125 .30322267 .328125 .28141276 .328125 .26546226 .3286387 .2553711 .32966615L.20605469 .3343048C.20410156 .3346405 .20035808 .3349813 .19482422 .33532716V.09283447L.25732423 .040039064H.03173828L.09716797 .09724426V.31088258C.06982422 .31088258 .048014326 .30012513 .03173828 .27861024L.021484375 .28349305C.040364583 .30729676 .065592449 .3205007 .09716797 .32310487V.34118653C.060709638 .34118653 .031901044 .32733665 .0107421879 .29963685L.0034179688 .30451966C.022623698 .3514557 .0538737 .37916056 .09716797 .38763429V.6074219L.03173828 .6669922M.5966797 .63964846 .546875 .5913086V.09246826L.6279297 0H.37451173L.3623047 .0126953129H.60009768L.53466799 .08659363V.5961914L.5888672 .64990237 .5966797 .63964846Z"/>
<clipPath id="clip_50">
<path transform="matrix(1,0,0,-1,0,960)" d="M.000008047 0H540V960H.000008047Z" fill-rule="evenodd"/>
</clipPath>
<path id="font_49_36" d="M.47216798 .6669922 .42138673 .609375 .50146487 .39642335 .5209961 .4071808 .44873048 .5996094 .5004883 .6591797 .5131836 .6538086 .4638672 .5966797 .53222659 .41452027C.5361328 .41744996 .53841146 .41924034 .5390625 .41989137L.5551758 .4335785C.5649414 .44140116 .5711263 .4469401 .57373049 .4501953 .58219406 .41304527 .59521487 .37980653 .61279299 .35047914 .60335287 .3512014 .5965169 .3515625 .59228518 .3515625 .56136068 .3515625 .538737 .346639 .52441409 .336792L.61279299 .09675598 .68603518 .040039064H.43945313L.50683596 .09675598 .45263673 .23950196C.41682945 .20332845 .3893229 .16894531 .3701172 .13635254L.35888673 .13928223C.37809245 .17122396 .40673829 .20691426 .44482423 .24635315L.44873048 .25123597 .43945313 .27275086C.40071617 .2404836 .36865235 .20300293 .34326173 .16030884L.33447267 .17448426C.31754557 .201533 .29589845 .2323354 .26953126 .26689149L.26464845 .27275086C.23958333 .21702576 .22705078 .17173259 .22705078 .13687134 .22705078 .11633301 .23055013 .098973598 .23754883 .08479309 .24454753 .070622768 .26139323 .046920778 .28808595 .013687134 .2903646 .010757446 .2939453 .0061950685 .29882813 0H.03515625L.025390625 .0126953129H.27392579L.265625 .022979737C.24414063 .04909261 .23006185 .06941223 .22338867 .0839386 .2167155 .098464969 .2133789 .11552429 .2133789 .13511658 .2133789 .16841126 .22688802 .21803284 .25390626 .28398133L.23242188 .30647279C.22819011 .29604594 .22281902 .2807261 .2163086 .2605133L.20019531 .21064759C.19140625 .18392436 .18701172 .1617635 .18701172 .14416504 .18701172 .12591553 .19010417 .11075846 .19628906 .09869385 .20247396 .086639408 .2154948 .07018534 .23535156 .049331666 .23730469 .04737854 .24023438 .044281007 .24414063 .040039064H0C.04654948 .06415812 .08341471 .096583049 .1105957 .13731385 .13777669 .17805481 .16471355 .24095662 .19140625 .3260193L.19335938 .33287049C.17610677 .34753929 .15120442 .35650636 .118652347 .35977174 .13655599 .38649497 .15039063 .4143575 .16015625 .44335938 .16471355 .43911744 .16748047 .43650819 .16845703 .43553163L.19042969 .41500855C.19791667 .4078369 .20686849 .40050254 .21728516 .39300538L.22607422 .41452027 .22021485 .41940309C.2039388 .43373619 .19026692 .44530235 .17919922 .45410157L.17480469 .45751954 .18261719 .46826173C.1998698 .4568685 .21647136 .4436798 .23242188 .42869569L.29882813 .6113281 .24707031 .6669922H.47216798M.3515625 .5102539 .29785157 .3685608C.30078126 .36530558 .30240885 .36335246 .30273438 .36270143L.3227539 .34020997C.3334961 .32847087 .34716798 .31022135 .36376954 .28546144L.36865235 .27812196C.38264976 .29572044 .3992513 .31315614 .41845704 .33042909L.3515625 .5102539M.32958985 .56689456 .25195313 .36172486C.27669273 .3363037 .2980143 .3112081 .31591798 .286438L.3383789 .25515748C.33870445 .25482179 .34033204 .2527008 .34326173 .24879456 .3461914 .25172425 .347819 .25351463 .34814454 .25416566L.35498048 .2624817C.35595704 .26378379 .3577474 .26589967 .36035157 .26882936 .3375651 .30402629 .31103517 .33580528 .28076173 .36416627L.34326173 .5292969 .32958985 .56689456M.6166992 .4267273C.62386068 .39735923 .64176437 .35706584 .67041018 .30584718 .6632487 .30673219 .6591797 .30717469 .6582031 .30717469L.61865237 .31028749C.6007487 .31176249 .58772787 .3125 .57958987 .3125 .5782878 .3125 .57503256 .31256614 .5698242 .31269837L.6513672 .09588623 .7602539 0H.47753907L.46826173 .0126953129H.72753909L.63964846 .09051514 .5527344 .3210144C.56380209 .32380168 .5764974 .3251953 .5908203 .3251953 .60839846 .3251953 .6279297 .32380168 .64941409 .3210144L.6435547 .3317871C.6227214 .37027995 .60872396 .4050242 .6015625 .4360199L.6166992 .4267273Z"/>
<clipPath id="clip_51">
<path transform="matrix(1,0,0,-1,0,960)" d="M.000008047 0H540V960H.000008047Z" fill-rule="evenodd"/>
</clipPath>
<path id="font_49_42" d="M.5722656 .64990237 .48095704 .47021485C.47509767 .5213216 .45906578 .5603841 .43286134 .58740237 .4066569 .6144206 .3720703 .6279297 .32910157 .6279297 .26790367 .6279297 .22029622 .6041667 .1862793 .5566406 .15226238 .50911459 .1352539 .44254557 .1352539 .3569336 .1352539 .16845703 .21240235 .07421875 .36669923 .07421875H.4453125V.32714845H.32226563C.2955729 .32714845 .27644859 .32861839 .26489259 .33155824 .25333659 .33450828 .2421875 .3408966 .23144531 .35072328V.3624878C.24316406 .35402427 .2548828 .34845988 .26660157 .34579469 .2783203 .3431295 .29736329 .34179688 .32373048 .34179688H.4453125V.3671875H.3095703 .28759767C.23909505 .3671875 .21484375 .38493348 .21484375 .42042542 .21484375 .43422953 .21891277 .44606019 .22705078 .45591737 .2351888 .46577455 .24495442 .47070313 .25634767 .47070313 .2648112 .47070313 .2722168 .46758525 .27856446 .4613495 .2849121 .4551239 .28808595 .4477539 .28808595 .4392395 .28808595 .42481486 .2828776 .41645304 .27246095 .41415406L.2607422 .4116974C.25683595 .41071067 .2548828 .40907289 .2548828 .40678407 .2548828 .40252177 .2602539 .40039063 .2709961 .40039063H.28759767 .6098633L.54248049 .33473207V.094192508L.60498049 .040039064H.35546876 .30615235C.2648112 .040039064 .23063152 .04508972 .20361328 .05519104 .17659505 .06529236 .1492513 .083211269 .12158203 .108947757 .056152345 .16888428 .0234375 .2491862 .0234375 .34985353 .0234375 .45377604 .05436198 .5348918 .11621094 .5932007 .17024739 .64434817 .234375 .6699219 .30859376 .6699219 .34179688 .6699219 .3798828 .66414389 .42285157 .6525879 .46679688 .64070639 .49576823 .6347656 .5097656 .6347656 .53027346 .6347656 .55110678 .6398112 .5722656 .64990237M.6015625 .6171875 .5180664 .453125 .50634768 .4584961 .59033206 .6230469 .6015625 .6171875M.4453125 .5449219 .43652345 .55126956C.39941407 .5776367 .3655599 .5908203 .33496095 .5908203 .29785157 .5908203 .26578776 .5776265 .23876953 .551239 .21923828 .5316976 .2051595 .50612387 .1965332 .47451783 .1879069 .44292198 .18359375 .40122477 .18359375 .34942628 .18359375 .2836202 .19010417 .23328655 .203125 .1984253 .21614583 .16357422 .24007161 .13214112 .27490235 .10412598V.098739627C.23714192 .12122091 .20996094 .15290325 .19335938 .19378662 .17675781 .23467 .16845703 .29013063 .16845703 .36016847 .16845703 .43737794 .1829427 .4974009 .21191406 .5402374 .24088542 .5830739 .28157554 .6044922 .33398438 .6044922 .37955729 .6044922 .41666667 .585612 .4453125 .54785159V.5449219M.6308594 .37297059 .5805664 .32261659V.09333801L.6616211 0 .46777345 .001953125 .2919922 0C.28092448 0 .27246095 .00032043458 .26660157 .0009613037 .24609375 .0031992596 .22542317 .011993408 .20458985 .02734375H.21484375C.23697917 .018229166 .2672526 .013671875 .30566407 .013671875L.33007813 .0146484379H.63427737L.56689456 .08796692V.3274994L.6230469 .3842163 .6308594 .37297059Z"/>
<clipPath id="clip_52">
<path transform="matrix(1,0,0,-1,0,960)" d="M.000008047 0H540V960H.000008047Z" fill-rule="evenodd"/>
</clipPath>
<path id="font_49_41" d="M.030761719 .6669922H.53759768C.51741537 .6402588 .50301107 .6192322 .49438478 .60391238 .48575846 .5885925 .47477214 .5639801 .46142579 .5300751L.45751954 .5202942C.43603517 .56465658 .41479493 .59335836 .39379884 .60639956 .37280274 .61945089 .33740235 .62597659 .28759767 .62597659L.25976563 .625 .21240235 .62550356 .19433594 .6259918V.39746095H.2241211V.5991821L.23828125 .5997772C.25846354 .6009674 .2799479 .6015625 .30273438 .6015625 .36914063 .6015625 .41064454 .58421328 .4272461 .5495148 .41129557 .56492617 .39396159 .5753377 .37524415 .5807495 .3565267 .5861613 .32763673 .5888672 .28857423 .5888672 .2745768 .5888672 .25716148 .5879262 .23632813 .5860443V.39746095H.3100586L.3881836 .48036195V.27467347L.30615235 .35546876H.19433594V.1101532L.25683595 .046875H.017089844L.09667969 .1101532V.31944276C.071614589 .31944276 .049641927 .31003318 .030761719 .291214L.021484375 .30143739C.040364583 .3222097 .06542969 .33259584 .09667969 .33259584V.35546876C.08984375 .35611979 .08496094 .3564453 .08203125 .3564453 .051757814 .3564453 .025553385 .3441111 .0034179688 .31944276L0 .32724C.0146484379 .37009684 .046875 .39350382 .09667969 .39746095V.60357668L.030761719 .6669922M.57470706 .6322937C.52815756 .577769 .4988607 .5278117 .4868164 .48242188L.4765625 .48927308C.48893229 .5405426 .51871749 .5909932 .56591799 .640625L.57470706 .6322937M.42382813 .4633789V.25222779L.4111328 .25956727V.47070313L.42382813 .4633789M.33642579 .3154297H.23632813V.10610962L.32226563 0H.03955078L.02734375 .0126953129H.29492188L.2241211 .100234989V.32910157H.32226563L.33642579 .3154297Z"/>
<clipPath id="clip_53">
<path transform="matrix(1,0,0,-1,0,960)" d="M.000008047 0H540V960H.000008047Z" fill-rule="evenodd"/>
</clipPath>
<path id="font_49_40" d="M.5493164 .6669922 .5415039 .65766909C.5083008 .6167552 .4819336 .56978866 .46240235 .5167694 .45914714 .524175 .45670573 .5296529 .45507813 .5332031 .43717448 .5718486 .41796876 .5968068 .39746095 .608078 .37695313 .6193593 .34016929 .625 .28710938 .625 .2626953 .625 .23339844 .62419638 .19921875 .6225891V.39941407H.23046875V.5969696C.25520835 .5993805 .2788086 .60058596 .30126954 .60058596 .3426107 .60058596 .37304688 .5962219 .39257813 .5874939 .41210938 .57876589 .42952476 .561793 .44482423 .5365753 .44026695 .5397695 .43701173 .5421651 .4350586 .5437622 .4086914 .564209 .38964845 .5763499 .3779297 .58018496 .36621095 .58401998 .34309898 .5859375 .30859376 .5859375 .2981771 .5859375 .2796224 .5853984 .2529297 .58432009L.24267578 .58392336V.39941407H.33251954L.3955078 .4858551V.27539063L.33251954 .3564453H.19921875V.08300781H.23046875V.33398438H.33642579L.3491211 .32128907H.24267578V.08300781C.30908204 .08300781 .35628257 .08772787 .38427735 .09716797 .41227214 .10660807 .43424479 .12516277 .4501953 .15283203L.47607423 .19726563C.47705079 .19921875 .4790039 .20279949 .4819336 .20800781 .49039714 .17220052 .5008952 .14355469 .51342776 .12207031 .52596029 .10058594 .5467122 .075520839 .5756836 .046875H.028320313L.10253906 .103515628V.32128907C.07519531 .31803385 .05045573 .3095703 .028320313 .29589845L.021484375 .30615235C.041341146 .32047526 .068359378 .3297526 .10253906 .33398438V.3564453C.09700521 .35709635 .09309896 .35742188 .09082031 .35742188 .057617189 .35742188 .02734375 .3453776 0 .32128907 .014973958 .3733724 .049153646 .39941407 .10253906 .39941407V.6066437L.028320313 .6669922H.5493164M.5727539 .6352234 .56933596 .6308136C.5296224 .57725527 .50309249 .53234866 .4897461 .49609376L.4814453 .5063782C.5032552 .55699667 .5314128 .6033732 .56591799 .6455078L.5727539 .6352234M.42919923 .47021485V.2541809L.4169922 .26054383V.4765625L.42919923 .47021485M.63134768 .043533327 .60595706 0H.072753909L.064941409 .0126953129H.5996094L.61621096 .043533327C.56933596 .08691915 .5362956 .13324483 .51708987 .18251038L.53271487 .176651C.55061849 .13489278 .5808919 .09312948 .62353518 .051361085L.63134768 .043533327Z"/>
<clipPath id="clip_54">
<path transform="matrix(1,0,0,-1,0,960)" d="M.000008047 0H540V960H.000008047Z" fill-rule="evenodd"/>
</clipPath>
<path id="font_49_44" d="M.020019532 .6669922H.25146485L.18603516 .60058596V.09185791L.2475586 .040039064H.020019532L.087890628 .09625244V.60595706L.020019532 .6669922M.2734375 .63916018 .22363281 .58984377V.0914917L.30566407 0H.051757814L.03955078 .0126953129H.27685548L.20996094 .08659363V.5942383L.26513673 .6489258 .2734375 .63916018Z"/>
<clipPath id="clip_55">
<path transform="matrix(1,0,0,-1,0,960)" d="M.000008047 0H540V960H.000008047Z" fill-rule="evenodd"/>
</clipPath>
<path id="font_49_45" d="M.46679688 .6669922 .4008789 .6010742V.23805237 .22241211C.4008789 .1979777 .40901695 .18136089 .42529298 .17256165 .42138673 .1299998 .40071617 .09531657 .36328126 .06851196 .32584635 .04171753 .27929688 .028320313 .22363281 .028320313 .12109375 .028320313 .05517578 .06845602 .025878907 .14872742L.019042969 .16725159C.01578776 .17667134 .01180013 .18308513 .007080078 .18649292 .0023600262 .18991089-.0066731774 .1927592-.020019532 .19503784L.12597656 .30404664C.12076823 .27222697 .11816406 .24008687 .11816406 .20762635 .11816406 .16379293 .12687175 .12880962 .14428711 .10267639 .16170247 .076543178 .18522136 .06347656 .21484375 .06347656 .27376304 .06347656 .30322267 .109939578 .30322267 .2028656V.6069336L.2368164 .6669922H.46679688M.4868164 .63964846 .43896485 .5908203V.23365784 .21458435L.44580079 .18476868C.45003257 .17630513 .45898438 .16767375 .47265626 .15887451 .46809898 .13117473 .45410157 .10282389 .43066407 .07382202 .38346354 .014841716 .31722007-.0146484379 .2319336-.0146484379 .16682942-.0146484379 .114746097 .004084269 .075683597 .041549684V.045455934C.100097659 .027074179 .123046878 .01441447 .14453125 .0074768068 .16601563 .00053914388 .19270833-.0029296876 .22460938-.0029296876 .28125-.0029296876 .3317871 .012095134 .3762207 .042144777 .4206543 .07219442 .44791667 .1096344 .4580078 .15446472 .44303385 .16651917 .43391929 .17678325 .43066407 .18525696 .42740885 .19373067 .42578126 .21084087 .42578126 .23658753V.5961914L.4794922 .64990237 .4868164 .63964846M.17138672 .29296876 .17041016 .28660584C.16422527 .2497406 .16113281 .22298686 .16113281 .2063446 .16113281 .14305115 .18473308 .099985759 .2319336 .07714844H.22460938C.17350261 .092152919 .14794922 .13244629 .14794922 .19802857 .14794922 .2313029 .15152996 .26294963 .1586914 .29296876H.17138672Z"/>
<clipPath id="clip_56">
<path transform="matrix(1,0,0,-1,0,960)" d="M.000008047 0H540V960H.000008047Z" fill-rule="evenodd"/>
</clipPath>
<path id="font_49_37" d="M.032714845 .60058596C.110188808 .6513672 .19710286 .6767578 .29345704 .6767578 .363444 .6767578 .4205729 .6610718 .46484376 .6296997 .50911459 .59832766 .53125 .55777487 .53125 .5080414 .53125 .44171653 .49283854 .39733888 .41601563 .37490846V.36953736C.42382813 .36758424 .43326823 .36497499 .44433595 .3617096 .48046876 .37017314 .5088704 .38743083 .529541 .41348268 .5502116 .43953453 .5605469 .47096253 .5605469 .5077667 .5605469 .55401107 .5415039 .59504196 .50341799 .6308594V.63378909L.50878909 .62939456C.5514323 .5964966 .5727539 .5543213 .5727539 .50286868 .5727539 .4318746 .53597006 .3823751 .46240235 .35437013 .49430339 .33970133 .5191243 .31884257 .53686526 .29179383 .55460616 .2647451 .56347659 .23427327 .56347659 .20037842 .56347659 .15182495 .54589846 .112960819 .5107422 .08378601 .47558595 .05462138 .42871095 .040039064 .3701172 .040039064H.020507813L.087890628 .09768677V.3093872C.0686849 .3093872 .046223958 .30743409 .020507813 .30352784L.016601563 .31770326C.045572919 .3206431 .06933594 .32211305 .087890628 .32211305V.34802247H.075683597C.057454427 .34802247 .034505208 .3467153 .0068359377 .34410096L.028320313 .39105226 .036132814 .39056397C.048828126 .38957725 .05843099 .38908387 .064941409 .38908387 .07470703 .38908387 .08235677 .38859559 .087890628 .38761903V.57128909L.032714845 .60058596M.18554688 .60791018V.38761903C.18912761 .3876699 .19156902 .3876953 .1928711 .3876953H.20166016C.20296224 .3876953 .20572917 .3876699 .20996094 .38761903V.58740237C.23795574 .6007487 .26529948 .6074219 .2919922 .6074219 .32259117 .6074219 .34676109 .60184738 .36450196 .59069827 .38224284 .5795593 .3972982 .56055709 .40966798 .5336914L.3959961 .5415039C.37158204 .5782878 .3367513 .5966797 .2915039 .5966797 .26611329 .5966797 .24332683 .58951827 .22314453 .5751953V.38761903L.24365235 .3876953C.3058268 .3876953 .35213218 .3979899 .38256837 .4185791 .41300456 .4391683 .42822267 .47070313 .42822267 .5131836 .42822267 .5504761 .41560874 .58055117 .39038087 .6034088 .36515299 .6262665 .33203126 .6376953 .29101563 .6376953 .2548828 .6376953 .21972656 .6277669 .18554688 .60791018M.18554688 .34753419V.078125H.20996094V.31819154C.23307292 .3196055 .24967449 .3203125 .25976563 .3203125 .3138021 .3203125 .35294596 .3152822 .37719728 .30522157 .40144859 .29516093 .4207357 .27601625 .4350586 .24778748H.42919923C.4132487 .26997376 .39322917 .2853292 .36914063 .29385377 .3450521 .30237834 .30973307 .30664063 .2631836 .30664063L.22314453 .30645753V.078125H.23876953L.3095703 .080566409C.4013672 .08706665 .44726563 .13158162 .44726563 .21411133 .44726563 .2657776 .4321289 .30111186 .40185548 .32011415 .37158204 .3391266 .3149414 .3486328 .2319336 .3486328 .22379558 .3486328 .20833333 .3482666 .18554688 .34753419M.55126956 .31318666C.5861003 .28614808 .6035156 .24510701 .6035156 .19006348 .6035156 .13468425 .58414718 .08891805 .54541018 .052764894 .5076497 .017588297 .45214845 0 .37890626 0H.046875L.03857422 .0126953129H.3466797C.41373698 .0126953129 .4620768 .019546509 .49169923 .0332489 .5574544 .06391907 .59033206 .117263797 .59033206 .19328308 .59033206 .23569234 .5753581 .27419029 .54541018 .30877687L.55126956 .31318666Z"/>
<clipPath id="clip_57">
<path transform="matrix(1,0,0,-1,0,960)" d="M.000008047 0H540V960H.000008047Z" fill-rule="evenodd"/>
</clipPath>
<path id="font_49_38" d="M.5332031 .65185549 .52783206 .6425781C.49853517 .5914714 .47314454 .54036459 .45166017 .4892578L.44726563 .47802735 .44091798 .4814453C.433431 .53062948 .41601563 .56961569 .38867188 .59840396 .36132813 .62720236 .32828776 .64160159 .28955079 .64160159 .24820964 .64160159 .21370442 .62358096 .18603516 .5875397 .15120442 .5427297 .13378906 .4667511 .13378906 .35960389 .13378906 .26738993 .14982097 .19514466 .18188477 .14286804 .21394857 .09059143 .25846354 .064453128 .3154297 .064453128 .3610026 .064453128 .39737956 .07963053 .42456056 .10998535 .45174156 .14035034 .4679362 .18378194 .47314454 .24028015 .47444663 .2539215 .47998048 .2607422 .4897461 .2607422 .5024414 .2607422 .50878909 .25016276 .50878909 .2290039 .50878909 .19742839 .5016276 .16471355 .4873047 .13085938 .45703126 .059244794 .39453126 .0234375 .2998047 .0234375 .21516927 .0234375 .14794922 .053115846 .09814453 .112472537 .048339845 .1718394 .0234375 .2521057 .0234375 .35327149 .0234375 .44662477 .049316408 .5248515 .10107422 .58795168 .15283203 .651062 .21712239 .6826172 .2939453 .6826172 .33040367 .6826172 .37190757 .67366537 .41845704 .6557617 .4428711 .6463216 .46305339 .64160159 .4790039 .64160159 .4962565 .64160159 .51171877 .6464844 .5253906 .65625L.5332031 .65185549M.39160157 .5673828C.36197917 .5908203 .33398438 .60253909 .3076172 .60253909 .2233073 .60253909 .18115235 .5221507 .18115235 .3613739 .18115235 .28814189 .19091797 .22719829 .21044922 .17854309 .22998047 .1298879 .25748698 .09839884 .29296876 .08407593V.079193118C.25455729 .087015789 .22387696 .11657715 .20092774 .1678772 .17797852 .21918743 .1665039 .2840983 .1665039 .36260987 .1665039 .5310262 .21272786 .6152344 .30517579 .6152344 .33642579 .6152344 .36523438 .6013997 .39160157 .57373049V.5673828M.55078127 .23170471C.54557296 .1507314 .5230306 .08910116 .4831543 .046813966 .44327799 .004536947 .38753257-.016601563 .31591798-.016601563 .261556-.016601563 .2109375 .00033569337 .1640625 .034210206V.038131715C.20572917 .010757446 .25602214-.0029296876 .3149414-.0029296876 .37939454-.0029296876 .43196617 .01776123 .47265626 .059143068 .49251304 .07935587 .50716146 .102005008 .51660159 .12709046 .5260417 .15218608 .53238937 .1854248 .53564456 .22680664L.5366211 .23805237 .55078127 .23170471M.56884768 .6279297 .56347659 .61865237C.5279948 .55810549 .49967448 .5029297 .47851563 .453125L.46533204 .45947267 .47070313 .4716797C.48697917 .5058594 .50130209 .5341797 .5136719 .5566406L.5527344 .62597659 .5576172 .6347656 .56884768 .6279297Z"/>
<clipPath id="clip_58">
<path transform="matrix(1,0,0,-1,0,960)" d="M.000008047 0H540V960H.000008047Z" fill-rule="evenodd"/>
</clipPath>
<path id="font_49_39" d="M.03466797 .6669922H.22705078C.3211263 .6669922 .39078776 .6489105 .43603517 .6127472 .50341799 .5593211 .5371094 .4755961 .5371094 .36157228 .5371094 .24331665 .5076497 .15780132 .44873048 .105026248 .42203776 .08124288 .39217124 .064463298 .35913087 .0546875 .32609049 .044921876 .28222657 .040039064 .22753906 .040039064H.020019532L.08691406 .091796878V.6099396L.03466797 .6669922M.18261719 .625V.078125H.20947266V.5929413C.22639974 .59543356 .24186199 .5966797 .25585938 .5966797 .2825521 .5966797 .30362956 .5940196 .3190918 .58869937 .33455406 .5833791 .35009767 .57362368 .36572267 .559433 .33121745 .57514956 .29427085 .5830078 .2548828 .5830078 .24641927 .5830078 .23535156 .5825958 .22167969 .58177188V.078125C.25813804 .078125 .28580729 .08113098 .3046875 .087142948 .32356773 .09315491 .34147135 .104771938 .35839845 .12199402 .40559898 .16975403 .42919923 .25001527 .42919923 .3627777 .42919923 .4729258 .40364585 .54814657 .35253907 .58843997 .3216146 .6128133 .2726237 .625 .2055664 .625H.18261719M.05029297 0 .04296875 .0126953129H.22167969C.3095703 .0126953129 .3763021 .02492269 .421875 .04937744 .51985678 .10154215 .56884768 .2024587 .56884768 .35212709 .56884768 .45222474 .546875 .52656558 .5029297 .57514956L.48339845 .5966644C.4827474 .5973155 .48079429 .5995992 .47753907 .6035156 .5465495 .56019088 .5810547 .47727967 .5810547 .3547821 .5810547 .22609966 .546875 .1312968 .47851563 .070373538 .42610679 .023457846 .34049479 0 .22167969 0H.05029297Z"/>
<clipPath id="clip_59">
<path transform="matrix(1,0,0,-1,0,960)" d="M.000008047 0H540V960H.000008047Z" fill-rule="evenodd"/>
</clipPath>
<path id="font_49_46" d="M.023925782 .6669922H.2524414L.18457031 .60253909V.30744935L.21142578 .33825685V.5986328L.26611329 .65185549 .2734375 .6411133 .22314453 .59228518V.3534088L.37451173 .5341339C.39632163 .56018576 .40722657 .5836334 .40722657 .6044769 .40722657 .61684677 .40104167 .62864688 .38867188 .6398773 .3763021 .651118 .36132813 .6585286 .34375 .6621094V.6669922H.6010742V.6621094C.5447591 .6484375 .48404948 .60253909 .4189453 .52441409L.35107423 .44384767 .53125 .093322757 .61328127 .040039064H.35986329L.42382813 .08795166 .30273438 .33042909 .22314453 .23313904V.093322757L.30273438 0H.052246095L.0390625 .0126953129H.2734375L.21142578 .08795166V.23950196L.29638673 .3441162 .28564454 .3656311 .18457031 .24536133V.093322757L.24365235 .040039064H.020019532L.08691406 .09724426V.6088867L.023925782 .6669922M.6254883 .6225586C.5773112 .6193034 .5292969 .5911458 .4814453 .53808596L.3959961 .44335938 .5683594 .09295654 .70654299 0H.3959961L.38232423 .0126953129H.66503909L.56103518 .08366394 .38232423 .44335938 .47314454 .54589846C.5206706 .5989583 .56966146 .6279297 .6201172 .6328125L.6254883 .6225586Z"/>
<clipPath id="clip_60">
<path transform="matrix(1,0,0,-1,0,960)" d="M.000008047 0H540V960H.000008047Z" fill-rule="evenodd"/>
</clipPath>
<path id="font_49_50" d="M.3984375 .55810549 .39013673 .5629883C.35888673 .5802409 .33024089 .5888672 .30419923 .5888672 .21858724 .5888672 .17578125 .50465396 .17578125 .33622743 .17578125 .21308899 .2023112 .13148499 .2553711 .091415408L.25097657 .086517337C.21842449 .10964966 .19523113 .14002483 .18139649 .17764282 .16756185 .215271 .16064453 .26617433 .16064453 .33035279 .16064453 .51115927 .20817058 .6015625 .30322267 .6015625 .34651695 .6015625 .37825523 .58707687 .3984375 .55810549M.2939453 .67285159C.37304688 .67285159 .4362793 .642924 .48364259 .58306887 .53100588 .5232239 .5546875 .4432068 .5546875 .34301759 .5546875 .24837239 .53133139 .1729126 .48461915 .11663818 .4379069 .06036377 .37516276 .032226564 .29638673 .032226564 .23421224 .032226564 .1788737 .052068075 .1303711 .0917511 .05908203 .15030416 .0234375 .23698934 .0234375 .35180665 .0234375 .45004273 .047851564 .5281067 .09667969 .58599856 .14550781 .6439006 .21126302 .67285159 .2939453 .67285159M.2939453 .6308594C.18391927 .6308594 .12890625 .534434 .12890625 .34158326 .12890625 .16334026 .18310547 .07421875 .2915039 .07421875 .34195964 .07421875 .3803711 .097839359 .40673829 .14508057 .43310548 .19232178 .44628907 .26139323 .44628907 .35229493 .44628907 .45521037 .43359376 .5269623 .40820313 .56755068 .3815104 .60975649 .34342448 .6308594 .2939453 .6308594M.44970704 .6484375C.4962565 .62594607 .53304037 .58747866 .5600586 .5330353 .58707687 .47859193 .60058596 .41566978 .60058596 .3442688 .60058596 .23929851 .5739746 .15453594 .52075198 .08998108 .4675293 .025436402 .3976237-.0068359377 .31103517-.0068359377 .25569663-.0068359377 .2039388 .012064616 .15576172 .049865724V.05230713C.1961263 .022644043 .2467448 .0078125 .3076172 .0078125 .3893229 .0078125 .45638023 .038594564 .50878909 .10015869 .56119796 .16173299 .58740237 .2404124 .58740237 .3361969 .58740237 .40753684 .57543948 .46991984 .5515137 .52334597 .5275879 .57677206 .49365235 .6166789 .44970704 .6430664V.6484375Z"/>
<clipPath id="clip_61">
<path transform="matrix(1,0,0,-1,0,960)" d="M.000008047 0H540V960H.000008047Z" fill-rule="evenodd"/>
</clipPath>
<path id="font_49_47" d="M.020019532 .6669922H.25341798L.18457031 .60009768V.07763672H.18847656L.20605469 .076171878H.21044922V.59521487L.2631836 .6484375 .27001954 .6376953 .22265625 .58935549V.076171878C.23730469 .07486979 .2513021 .07421875 .26464845 .07421875 .31640626 .07421875 .35555015 .08570862 .38208009 .108688358 .40861003 .13166809 .42643229 .16956075 .43554688 .22236634 .46614585 .13339742 .4975586 .072621669 .52978518 .040039064H.020019532L.087402347 .09524536V.60498049L.020019532 .6669922M.5776367 .043533327 .55566409 0H.045898439L.033691408 .0126953129H.55029299L.5644531 .043533327C.5286458 .08758036 .5 .13667806 .47851563 .19082642L.4765625 .19621277 .4921875 .1903534 .49560548 .18203736C.51741537 .13374837 .54345706 .08921305 .57373049 .048431398L.5776367 .043533327Z"/>
<clipPath id="clip_62">
<path transform="matrix(1,0,0,-1,0,960)" d="M.000008047 0H540V960H.000008047Z" fill-rule="evenodd"/>
</clipPath>
<path id="font_49_58" d="M.84472659 .83447268C.7994792 .78463748 .76538088 .734965 .74243167 .6854553 .7194824 .6359558 .6923828 .55404666 .6611328 .43972779L.57666018 .13194275 .5864258 .093811038 .6464844 .040039064H.42382813L.48779298 .093811038 .4013672 .4071808 .3173828 .10066223 .4013672 0H.15185547L.14208985 .0126953129H.37451173L.30126954 .097732547 .3935547 .43211366 .3774414 .49023438 .27734376 .12413025 .28515626 .093811038 .34228517 .040039064H.119140628L.18554688 .093811038 .04345703 .60546877-.029785157 .6669922H.20898438L.14208985 .60546877 .25390626 .20283509 .2709961 .2619934 .17675781 .59814456 .2211914 .6376953 .23242188 .6298828 .19189453 .59375 .27734376 .286438 .38183595 .6669922H.42773438L.5546875 .20674134 .5703125 .2619934 .4580078 .6669922H.4716797L.57666018 .286438 .6225586 .4515381C.6512044 .55510458 .66552737 .6225179 .66552737 .6537781 .66552737 .68861898 .6492513 .7159729 .6166992 .73583987 .65478518 .7478841 .695638 .76432296 .7392578 .78515627 .7828776 .80598959 .8154297 .82470706 .83691409 .8413086L.84472659 .83447268M.87402346 .7973633C.83496096 .7543437 .80281576 .7057851 .7775879 .6516876 .75236007 .5976003 .7265625 .5219981 .7001953 .42488099L.61376956 .10910034 .70751956 0H.45703126L.44580079 .0126953129H.6777344L.5986328 .10421753 .68847659 .43171693C.71516928 .52883407 .74072268 .6035411 .7651367 .655838 .7895508 .70814517 .82210287 .75808718 .86279299 .80566409L.87402346 .7973633Z"/>
<clipPath id="clip_63">
<path transform="matrix(1,0,0,-1,0,960)" d="M.000008047 0H540V960H.000008047Z" fill-rule="evenodd"/>
</clipPath>
<path id="font_49_48" d="M.6777344 .6669922 .61083987 .5991211V.09765625L.67089846 .040039064H.44628907L.51416018 .09765625V.42626954L.359375 0H.3125L.30859376 .0126953129H.35107423L.51416018 .46777345V.54248049L.33251954 .041015626H.29833985L.16455078 .4350586V.17675781C.16455078 .14225261 .16682942 .11783854 .17138672 .103515628 .17594402 .08919271 .1866862 .073404949 .20361328 .056152345L.2475586 0H-.0078125L-.016601563 .0126953129H.22314453L.20507813 .040039064H-.0126953129L-.0024414063 .045425416C.033691408 .06534322 .05753581 .085505168 .0690918 .105911258 .08064779 .12631734 .08642578 .15855916 .08642578 .20263672V.6064453L.021972657 .6669922H.27441407L.20361328 .60302737 .34179688 .19433594 .359375 .2368164 .234375 .5991211 .29833985 .6464844 .30859376 .6381836 .2475586 .59521487 .36376954 .2548828 .4897461 .60302737 .43017579 .6669922H.6777344M.125 .55126956V.2006836C.125 .14697266 .13012696 .11002604 .14038086 .08984375 .15063477 .06966146 .171875 .05501302 .20410156 .045898439L.19970703 .053222658C.16780599 .07535807 .15185547 .10725912 .15185547 .14892578V.1850586 .4736328L.125 .55126956M.7050781 .62890627 .64990237 .58935549V.09638977L.7348633 0H.47558595L.46875 .0126953129H.7050781L.63720706 .089523319V.59765627L.6948242 .63720706 .7050781 .62890627Z"/>
<clipPath id="clip_64">
<path transform="matrix(1,0,0,-1,0,960)" d="M.000008047 0H540V960H.000008047Z" fill-rule="evenodd"/>
</clipPath>
<path id="font_49_59" d="M.6225586 .6669922 .5151367 .5966797 .35888673 .39790345 .53759768 .1040802 .6225586 .040039064H.37060548L.4326172 .10017395 .32128907 .2820282 .18359375 .1040802 .26367188 0H-.0034179688L-.0107421879 .0126953129H.23779297L.16796875 .1040802 .31445313 .2942505 .30078126 .31576539 .14111328 .1133728 .2006836 .040039064H-.0234375L.09082031 .1133728 .27978517 .35292054 .1274414 .6015625 .03466797 .6669922H.29248048L.22851563 .6113281 .33740235 .4335785 .35498048 .4560547 .26367188 .6015625 .3178711 .6533203 .32666017 .64501956 .27978517 .6015625 .36279298 .4658203 .46875 .6015625 .40771485 .6669922H.6225586M.6401367 .6298828 .5449219 .57373049 .40673829 .39442445 .5751953 .11546326 .69433596 0H.39111329L.38232423 .0126953129H.66308596L.56396487 .10910034 .39111329 .39442445 .5361328 .58203127 .6328125 .63964846 .6401367 .6298828Z"/>
<clipPath id="clip_65">
<path transform="matrix(1,0,0,-1,0,960)" d="M.000008047 0H540V960H.000008047Z" fill-rule="evenodd"/>
</clipPath>
<path id="font_49_60" d="M.7026367 .8388672 .7055664 .83496096 .7006836 .82958987C.64241537 .76902267 .59440109 .7074788 .5566406 .6449585 .5419922 .6211853 .5315755 .6042531 .5253906 .594162L.34375 .3035431V.10505676L.41455079 .040039064H.17675781L.24707031 .10505676V.3035431L.12988281 .48379518 .10449219 .524353C.08138021 .56049606 .06241862 .58687338 .047607423 .6034851 .032796224 .62009689 .010904948 .639801-.018066407 .66259768L-.0234375 .6669922H.22314453L.16259766 .6040039 .3251953 .3587799 .3408203 .38371278 .19580078 .6040039 .24707031 .65283206 .25732423 .64501956 .21289063 .6040039 .34814454 .39544679 .45751954 .5678406C.48909507 .61798098 .5048828 .65542098 .5048828 .6801605 .5048828 .701004 .4910482 .72477218 .4633789 .75146487 .55810549 .7742513 .63590499 .8024089 .69677737 .8359375L.7026367 .8388672M.7246094 .8095703V.7895508L.71972659 .78466799C.6923828 .75860598 .66886398 .73254397 .6491699 .70648196 .6294759 .6804301 .60026046 .636617 .56152346 .5750427L.38476563 .2965393V.10470581L.4716797 0H.16601563L.16015625 .0126953129H.44580079L.37158204 .10470581V.29997254L.5517578 .5843353 .5800781 .6292877C.6305339 .70974227 .67871096 .7698364 .7246094 .8095703Z"/>
<clipPath id="clip_66">
<path transform="matrix(1,0,0,-1,0,960)" d="M0 .00024414H540V960.00027H0Z" fill-rule="evenodd"/>
</clipPath>
<clipPath id="clip_67">
<path transform="matrix(1,0,0,-1,0,960)" d="M0 .00024414H540V960.00027H0Z" fill-rule="evenodd"/>
</clipPath>
<clipPath id="clip_68">
<path transform="matrix(1,0,0,-1,0,960)" d="M.000008047 0H540V960H.000008047Z" fill-rule="evenodd"/>
</clipPath>
<path id="font_49_51" d="M.04736328 .6669922H.26660157C.35970054 .6669922 .425944 .6540782 .46533204 .6282501 .5154622 .59588119 .54052737 .5509288 .54052737 .49339295 .54052737 .45840965 .5309245 .42800395 .51171877 .4021759 .49251304 .37634788 .46565757 .3577118 .43115235 .3462677 .39664714 .3348236 .34179688 .32910157 .26660157 .32910157H.20654297V.093566898L.26611329 .040039064H.0390625L.106933597 .096969608V.29211427C.103027347 .29333497 .100260417 .2939453 .09863281 .2939453 .07519531 .2939453 .052734376 .2884674 .03125 .2775116L.026855469 .28627015C.048665365 .29859925 .06819662 .3047638 .08544922 .3047638H.103027347L.106933597 .30525209V.32910157C.09944662 .33040367 .09440104 .3310547 .091796878 .3310547 .056966146 .3310547 .029134116 .32245384 .008300781 .30525209L.0034179688 .31256105C.02327474 .34962974 .05517578 .36816407 .099121097 .36816407L.106933597 .36808778V.6118927L.04736328 .6669922M.20654297 .6226196V.37158204L.21289063 .3720703 .22558594 .37109376C.22688802 .37109376 .2290039 .3712565 .2319336 .37158204V.58984377H.28564454C.3273112 .58984377 .35668946 .58613589 .3737793 .5787201 .39086915 .5713145 .4054362 .55592349 .41748048 .532547 .4054362 .5490265 .39038087 .5605774 .37231446 .5671997 .35424806 .5738322 .32877604 .57714846 .29589845 .57714846H.24560547V.37158204C.3100586 .37158204 .35734049 .38128153 .38745118 .40068055 .41756187 .42008973 .4326172 .4505361 .4326172 .49201966 .4326172 .53851827 .41918946 .57230636 .39233399 .5933838 .36547853 .61446127 .32226563 .625 .2626953 .625 .24739583 .625 .22867839 .62420657 .20654297 .6226196M.515625 .6147461C.53548178 .60498049 .5514323 .58780929 .56347659 .5632324 .5755208 .5386556 .58154299 .5107422 .58154299 .4794922 .58154299 .40885417 .5541992 .3580729 .49951173 .32714845 .45817057 .30371095 .38753257 .2919922 .28759767 .2919922 .2709961 .2919922 .2569987 .2922058 .24560547 .29263307V.09051514L.32226563 0H.07763672L.064453128 .0126953129H.2944336L.2319336 .085128787V.30584718C.2602539 .304423 .2903646 .30371095 .32226563 .30371095 .40625 .30371095 .46858726 .31852214 .50927737 .34814454 .54996749 .37776695 .5703125 .4231771 .5703125 .484375 .5703125 .5097656 .56640627 .53181967 .55859377 .5505371 .55078127 .5692546 .5364583 .59065756 .515625 .6147461Z"/>
<clipPath id="clip_69">
<path transform="matrix(1,0,0,-1,0,960)" d="M.000008047 0H540V960H.000008047Z" fill-rule="evenodd"/>
</clipPath>
<path id="font_49_49" d="M.57714846 .6669922C.54003909 .64778646 .5161133 .6302083 .5053711 .6142578 .48909507 .58951827 .48095704 .5522461 .48095704 .5024414V.47070313 .040039064H.3984375L.16796875 .48779298V.22239685L.16748047 .20039368 .17333985 .12998963C.17985027 .09739685 .19466146 .073277797 .21777344 .057632448L.22167969 .054214479C.17675781 .06920878 .15429688 .11727905 .15429688 .1984253L.15478516 .24438477V.51171877L.12841797 .5629883V.28153993C.12841797 .1922353 .13427735 .13373311 .1459961 .106033328 .15771485 .078333538 .18522136 .058125814 .22851563 .045410158L.2709961 0H.0063476564L-.0014648438 .0126953129H.24316406L.21777344 .040039064H-.009765625C.029947916 .054382326 .056315107 .07361349 .06933594 .097732547 .08235677 .1218516 .08886719 .1632436 .08886719 .22190857V.61279299L.023925782 .6669922H.2709961L.20166016 .62060549 .43798829 .15933228V.21798706L.23535156 .61279299 .30371095 .6591797 .31298829 .64990237 .2524414 .6088867 .43798829 .24438477V.47265626 .49853517C.43798829 .5551758 .4333496 .5930176 .42407228 .61206057 .41479493 .6311035 .3919271 .64941409 .35546876 .6669922H.57714846M.5942383 .6308594 .5854492 .61621096C.5603841 .61035159 .5433757 .599528 .5344238 .58374026 .525472 .56795248 .5209961 .5413411 .5209961 .50390627V0H.41601563L.40966798 .0126953129H.5078125V.49902345C.5078125 .5449219 .51375326 .5769043 .52563479 .5949707 .5375163 .6130371 .5603841 .625 .5942383 .6308594Z"/>
<clipPath id="clip_70">
<path transform="matrix(1,0,0,-1,0,960)" d="M.000008047 0H540V960H.000008047Z" fill-rule="evenodd"/>
</clipPath>
<path id="font_49_52" d="M.38232423 .5810547C.37939454 .58235678 .37711589 .5833333 .37548829 .5839844 .34977214 .5957031 .32779948 .6015625 .3095703 .6015625 .2607422 .6015625 .22558594 .57908126 .20410156 .53411868 .18261719 .48916627 .171875 .41571046 .171875 .31375123 .171875 .19679769 .20475261 .11893717 .2705078 .08016968H.265625C.2311198 .09060669 .20483399 .116607669 .18676758 .1581726 .16870117 .19974773 .15966797 .254776 .15966797 .32325746 .15966797 .42530824 .17089844 .49883018 .19335938 .54382327 .21582031 .5888265 .25260417 .6113281 .30371095 .6113281 .3346354 .6113281 .36083985 .6023763 .38232423 .58447268V.5810547M.44433595 .08016968C.4736328 .050160726 .50878909 .03515625 .5498047 .03515625 .5719401 .03515625 .5966797 .041361493 .62402346 .053771974L.6274414 .051818849C.6121419 .03064982 .5996094 .011433919 .58984377-.0058288576L.55371096-.07080078 .5517578-.07470703C.49804688-.06526693 .45133464-.036453248 .4116211 .011734009 .37809245-.0039011639 .34440104-.01171875 .31054688-.01171875 .2561849-.01171875 .21289063 .0024515789 .18066406 .030792237L.18261719 .034210206C.22623699 .012705485 .26660157 .001953125 .30371095 .001953125 .33984376 .001953125 .37288413 .008473714 .40283204 .021514893 .40152995 .023468018 .40055339 .024932862 .39990235 .025909424 .39534507 .033406576 .39095054 .039108278 .38671876 .043014528 .3564453 .0319163 .3251953 .026367188 .29296876 .026367188 .2154948 .026367188 .15120442 .05753581 .100097659 .11987305 .048990888 .18221028 .0234375 .26041667 .0234375 .3544922 .0234375 .45117188 .048421224 .52937826 .09838867 .5891113 .14835613 .6488444 .21402996 .67871096 .29541017 .67871096 .37451173 .67871096 .43823243 .64923098 .48657228 .590271 .5349121 .53131106 .55908206 .45362345 .55908206 .35720826 .55908206 .29857383 .5506999 .24848938 .53393557 .20695496 .5171712 .16543071 .48876954 .12463379 .44873048 .08456421L.44433595 .08016968M.4189453 .15348816C.44108073 .20104473 .45214845 .27026368 .45214845 .36114503 .45214845 .54681399 .3972982 .63964846 .28759767 .63964846 .1805013 .63964846 .12695313 .54215499 .12695313 .34716798 .12695313 .25960288 .14176433 .19091797 .17138672 .14111328 .20100911 .091308597 .24169922 .06640625 .29345704 .06640625 .31526695 .06640625 .33642579 .07099406 .3569336 .08016968 .33772788 .11591593 .31217448 .13378906 .28027345 .13378906 .27799479 .13378906 .27408854 .1335144 .2685547 .13296509L.30273438 .17500305C.3264974 .16815694 .355306 .15120952 .38916017 .12416077L.39501954 .119277957C.39892579 .12416077 .40348307 .13035076 .4086914 .1378479L.4111328 .14126587C.3893229 .16245525 .36083985 .17923992 .3256836 .19161988L.33251954 .2028656C.36083985 .19211324 .38753257 .1772817 .41259767 .15837097L.4189453 .15348816M.4580078 .6435547C.5032552 .6246643 .53930667 .58907577 .5661621 .53678897 .5930176 .48450218 .6064453 .42367045 .6064453 .35429383 .6064453 .2503713 .5760091 .16111247 .5151367 .086517337 .5336914 .07054647 .5625 .06093343 .6015625 .057678224V.054748537C.5891927 .05275472 .57991537 .051757814 .57373049 .051757814 .5447591 .051757814 .5185547 .06253052 .4951172 .08407593 .5602214 .15020752 .59277346 .24076844 .59277346 .35575868 .59277346 .48116557 .54785159 .57612106 .4580078 .640625V.6435547M.6640625 .029327393C.6376953-.0051879885 .61279299-.044260663 .58935549-.087890628L.5864258-.09326172 .57470706-.087402347C.5857747-.06525675 .5983073-.04392497 .6123047-.023406983L.6503906 .03227234 .65283206 .03617859 .6640625 .029327393Z"/>
<clipPath id="clip_71">
<path transform="matrix(1,0,0,-1,0,960)" d="M.000008047 0H540V960H.000008047Z" fill-rule="evenodd"/>
</clipPath>
<path id="font_49_53" d="M.04296875 .60839846C.12011719 .65266928 .203125 .6748047 .2919922 .6748047 .3610026 .6748047 .41788737 .659846 .46264649 .6299286 .5074056 .60002139 .52978518 .5619812 .52978518 .5158081 .52978518 .47809855 .5151367 .444692 .48583985 .41558839 .45654298 .38648478 .4165039 .36543275 .36572267 .35243226 .3881836 .29049174 .41870118 .23018392 .4572754 .17150879 .4958496 .11283366 .5345052 .067850749 .5732422 .03656006L.56591799 .034118654C.51741537 .017527262 .4698893-.0058898928 .42333985-.036132814L.41601563-.041015626 .41357423-.025375367C.39274089 .10072327 .36360679 .20759583 .32617188 .2952423L.32421876 .30012513C.3017578 .28969828 .27164714 .28138734 .23388672 .27519227L.22998047 .27470399V.09185791L.31591798 0H.06347656L.055664064 .0126953129H.28808595L.21728516 .08843994V.28546144L.22753906 .28692628C.26464845 .29083253 .2957357 .29816184 .32080079 .30891419 .31884767 .3128306 .31770835 .3152771 .3173828 .31625367L.3125 .33042909C.31217448 .3314158 .3113607 .33337403 .3100586 .3363037 .2898763 .33043418 .25179038 .32407633 .19580078 .31723023L.19042969 .31625367V.098220828L.24609375 .040039064H.030273438L.09375 .098220828V.2624817L.08984375 .2619934C.07096354 .25775147 .0538737 .25302125 .03857422 .24780274L.03466797 .24633789 .030273438 .25611878C.044596357 .2616628 .055826826 .26541139 .063964847 .2673645L.08984375 .27372743 .09375 .27470399V.30012513C.07454427 .30012513 .05061849 .29588828 .021972657 .28741456L.016601563 .28546144C.017252604 .2900187 .020507813 .3006083 .026367188 .31723023 .027018229 .31853233 .029296875 .3258667 .033203126 .3392334 .033528646 .34020997 .034016927 .3416748 .03466797 .34362794 .049316408 .34240724 .060709638 .34179688 .068847659 .34179688 .07763672 .34179688 .08577474 .34240724 .09326172 .34362794V.5839844C.07828776 .59309896 .06282552 .6007487 .046875 .6069336L.04296875 .60839846M.19042969 .62109377V.35780335C.1998698 .35780335 .20882161 .35862223 .21728516 .36026V.60058596C.2351888 .60579428 .2566732 .60839846 .28173829 .60839846 .34521485 .60839846 .38834635 .58740237 .4111328 .54541018 .38704429 .5649414 .3658854 .57836917 .34765626 .58569338 .3294271 .5930176 .3076172 .5966797 .28222657 .5966797 .26236979 .5966797 .24495442 .59472659 .22998047 .5908203V.36026L.23535156 .36123658C.29947917 .3728943 .34708659 .39127604 .37817384 .41638185 .40926109 .44148765 .4248047 .4741211 .4248047 .5142822 .4248047 .5502421 .41080729 .5799611 .3828125 .60343936 .35481773 .6269277 .3194987 .6386719 .27685548 .6386719 .24267578 .6386719 .21386719 .6328125 .19042969 .62109377M.42626954 .32800294C.44677735 .26087443 .4830729 .19521077 .53515627 .13101197 .5677083 .090922039 .6088867 .054911298 .6586914 .022979737 .58414718 .003112793 .51416018-.027170817 .44873048-.067871097L.44433595-.07080078 .4345703-.06298828C.49674479-.022288004 .5629883 .0076700847 .6333008 .026885987 .5395508 .08945719 .4658203 .1894989 .41210938 .3270111L.4091797 .33532716C.50878909 .3731079 .55859377 .43075053 .55859377 .508255 .55859377 .5401662 .54573568 .5750122 .52001956 .61279299 .55289718 .5828349 .56933596 .5447337 .56933596 .49848939 .56933596 .42358909 .52164718 .36676026 .42626954 .32800294Z"/>
<clipPath id="clip_72">
<path transform="matrix(1,0,0,-1,0,960)" d="M.000008047 0H540V960H.000008047Z" fill-rule="evenodd"/>
</clipPath>
<path id="font_49_54" d="M.47851563 .6616211C.46158854 .63883468 .44807945 .6150716 .43798829 .59033206 .4181315 .5415039 .4049479 .51155599 .3984375 .5004883L.3959961 .4975586C.394694 .50112918 .39371745 .5038859 .3930664 .50582888 .3839518 .535024 .37646485 .55529788 .37060548 .5666504 .3647461 .5780029 .35595704 .58887228 .34423829 .5992584 .31461589 .62553408 .28092448 .6386719 .24316406 .6386719 .20833333 .6386719 .17936199 .62899276 .15625 .6096344 .13313802 .59028628 .12158203 .56597396 .12158203 .5366974 .12158203 .48206077 .16276042 .44481913 .24511719 .42497254L.32763673 .40496827C.44514976 .37667848 .50390627 .31471763 .50390627 .2190857 .50390627 .16574097 .48380534 .12093607 .44360353 .08467102 .4034017 .048405965 .35367839 .030273438 .2944336 .030273438 .25732423 .030273438 .21582031 .035898847 .16992188 .04714966L.11279297 .061141969C.08968099 .066604617 .07063802 .06933594 .055664064 .06933594 .035807294 .06933594 .0152994799 .06300863-.005859375 .050354005L-.009765625 .05718994C.030598959 .118133548 .05891927 .17614238 .07519531 .23121643L.083984378 .22877503C.09082031 .17773946 .111328128 .13808187 .14550781 .109802249 .1796875 .08152262 .22444661 .06738281 .27978517 .06738281 .32340495 .06738281 .3580729 .07747396 .38378907 .09765625 .40950523 .11783854 .42236329 .14501953 .42236329 .17919922 .42236329 .21858724 .40445964 .2511393 .36865235 .27685548 .3429362 .29508464 .2902018 .31201173 .21044922 .32763673 .14892578 .339681 .10432943 .35970054 .076660159 .3876953 .048990888 .4156901 .03515625 .45458985 .03515625 .50439456 .03515625 .55582687 .05362956 .5975749 .09057617 .6296387 .12752278 .66170248 .17561849 .6777344 .23486328 .6777344 .27294923 .6777344 .3173828 .67089846 .36816407 .65722659 .3919271 .6507161 .40950523 .64746096 .42089845 .64746096 .43684898 .64746096 .4542643 .6529948 .47314454 .6640625L.47851563 .6616211M.50878909 .6405029 .50439456 .6330414C.4910482 .6101735 .47965495 .5883026 .47021485 .5674286 .44742839 .51871237 .4345703 .49153648 .43164063 .48590089L.42919923 .48242188 .41748048 .48739625 .4194336 .49186708C.4288737 .513738 .44254557 .5422414 .46044923 .5773773L.49365235 .64294436 .49609376 .6468506 .50878909 .6405029M.36621095 .5436554C.33040367 .5816091 .2919922 .60058596 .25097657 .60058596 .22623699 .60058596 .20572917 .5934448 .18945313 .5791626 .17317708 .56489059 .16503906 .54671737 .16503906 .52464297 .16503906 .5006358 .18147786 .47597758 .21435547 .45066834L.21826172 .44822694 .21582031 .44433595C.17285156 .4634908 .15136719 .49124146 .15136719 .5275879 .15136719 .552948 .16048177 .57360336 .17871094 .58955386 .19694011 .60550436 .22070313 .6134796 .25 .6134796 .27799479 .6134796 .30249024 .6075389 .32348634 .59565737 .34448243 .5837758 .35986329 .5670929 .3696289 .5456085L.36621095 .5436554M.47851563 .34999085C.52278646 .31643168 .5449219 .2704824 .5449219 .21214295 .5449219 .14990743 .5208333 .09719849 .47265626 .054016115 .42447917 .010843913 .3658854-.0107421879 .296875-.0107421879 .26171876-.0107421879 .22998047-.007115682 .20166016 .0001373291L.123535159 .019439698C.10530599 .024058024 .08577474 .026367188 .064941409 .026367188 .04638672 .026367188 .029296875 .022466025 .013671875 .014663696L.0078125 .028839112C.024739584 .036956788 .041992189 .041015626 .059570314 .041015626 .07910156 .041015626 .10139974 .038050336 .12646485 .03211975L.20166016 .013809204C.23160808 .006556193 .2631836 .0029296876 .29638673 .0029296876 .36149089 .0029296876 .4169108 .023701987 .46264649 .06524658 .50838217 .10680135 .53125 .1570689 .53125 .2160492 .53125 .26591493 .5136719 .30958558 .47851563 .34706117V.34999085M.13085938 .20921326C.14290364 .15055847 .1751302 .10900879 .22753906 .08456421V.08065796C.16699219 .09825643 .1303711 .14029439 .11767578 .20677185L.13085938 .20921326M.06982422 .3675995 .08642578 .35830689C.09716797 .3390808 .12858074 .32310996 .18066406 .3103943L.25927735 .29084779C.31266276 .27748109 .34822593 .2659912 .3659668 .25637818 .38370768 .24676514 .39632163 .23218282 .4038086 .21263123L.40039063 .2106781C.3857422 .22762554 .36987306 .24001058 .3527832 .24783325 .33569337 .2556559 .30289714 .26526896 .25439454 .27667237 .18408203 .29296876 .13688152 .30706278 .11279297 .31895448 .08870443 .33085633 .07438151 .34707133 .06982422 .3675995Z"/>
<clipPath id="clip_73">
<path transform="matrix(1,0,0,-1,0,960)" d="M.000008047 0H540V960H.000008047Z" fill-rule="evenodd"/>
</clipPath>
<path id="font_74_5" d="M.36035157 .6669922 .54589846 0H.3515625L.31201173 .14453125H.111328128L.068847659 0H-.0068359377L.19042969 .6669922H.36035157M.1303711 .21191406H.2939453L.21533203 .5068817 .1303711 .21191406Z"/>
<path id="font_74_55" d="M.51708987 .50491335V0H.3388672V.07861328C.29785157 .01969401 .24511719-.009765625 .18066406-.009765625 .09375-.009765625 .05029297 .032714845 .05029297 .11767578V.4921875C.110188808 .49480186 .16959636 .4990438 .22851563 .50491335V.12207031C.22851563 .08886719 .23860677 .072265628 .25878907 .072265628 .31217448 .072265628 .3388672 .1295573 .3388672 .24414063V.4921875C.3984375 .49480186 .45784507 .4990438 .51708987 .50491335Z"/>
<path id="font_74_53" d="M.43359376 .36572267 .34716798 .35058595C.34716798 .42415367 .31298829 .4609375 .2446289 .4609375 .20263672 .4609375 .18164063 .4436849 .18164063 .4091797 .18164063 .38378907 .21777344 .3564453 .29003907 .32714845 .40071617 .28190104 .4560547 .22444661 .4560547 .15478516 .4560547 .04378255 .38557945-.01171875 .2446289-.01171875 .09554037-.01171875 .020996094 .04378255 .020996094 .15478516L.11279297 .17333985C.11149088 .16263835 .110839847 .15258281 .110839847 .14317322 .110839847 .11462911 .122802738 .08981323 .14672852 .068725589 .1706543 .047648115 .19889324 .037109376 .23144531 .037109376 .27441407 .037109376 .29589845 .055338544 .29589845 .091796878 .29589845 .11621094 .26123048 .14322917 .19189453 .17285156 .087402347 .21777344 .03515625 .27539063 .03515625 .34570313 .03515625 .3922526 .05517578 .43041993 .095214847 .46020509 .1352539 .48999024 .1866862 .5048828 .24951172 .5048828 .36116538 .5048828 .42252604 .4584961 .43359376 .36572267Z"/>
<path id="font_74_39" d="M.40185548 .18017578 .4736328 .15917969C.46614585 .045247396 .39908854-.01171875 .27246095-.01171875 .10839844-.01171875 .026367188 .070226039 .026367188 .2341156 .026367188 .31362406 .048177083 .37878929 .091796878 .4296112 .13541667 .48044334 .19124349 .5058594 .25927735 .5058594 .40152995 .5058594 .47265626 .4140625 .47265626 .23046875H.21289063C.21289063 .1015625 .24560547 .037109376 .31103517 .037109376 .37223307 .037109376 .40283204 .07356771 .40283204 .14648438 .40283204 .15625 .4025065 .16748047 .40185548 .18017578M.21240235 .2861328H.31884767C.31884767 .4000651 .30159507 .45703126 .26708985 .45703126 .23583985 .45703126 .21826172 .41478984 .21435547 .330307L.21240235 .2861328Z"/>
<path id="font_74_48" d="M.51464846 0H.33642579V.36132813C.33642579 .39778648 .32617188 .41601563 .30566407 .41601563 .28483073 .41601563 .2667643 .40149436 .25146485 .37245179 .23616536 .3434194 .22851563 .30911256 .22851563 .26953126V0H.05029297V.49316407C.11149088 .49316407 .17089844 .49724327 .22851563 .5054016V.41308595C.27278648 .47428385 .3268229 .5048828 .390625 .5048828 .47330729 .5048828 .51464846 .46289063 .51464846 .37890626V0Z"/>
<path id="font_74_37" d="M.39892579 .21972656 .4741211 .19677735 .47460938 .17675781C.47460938 .051757814 .40625-.0107421879 .26953126-.0107421879 .107421878-.0107421879 .026367188 .071528118 .026367188 .23606873 .026367188 .31850688 .04996745 .38424174 .09716797 .43327333 .14436849 .48231507 .2076823 .50683596 .28710938 .50683596 .4013672 .50683596 .4584961 .45491538 .4584961 .35107423L.375 .31054688 .37597657 .35742188C.37597657 .42773438 .3523763 .46289063 .30517579 .46289063 .24267578 .46289063 .21142578 .3939565 .21142578 .25608827 .21142578 .17090352 .21809896 .112457279 .23144531 .08074951 .24479167 .04905192 .26953126 .033203126 .30566407 .033203126 .37174479 .033203126 .40478517 .07589722 .40478517 .1612854 .40478517 .17329915 .40283204 .19277954 .39892579 .21972656Z"/>
<path id="font_74_43" d="M.14160156 .68359377C.19694011 .68359377 .22460938 .6621094 .22460938 .6191406 .22460938 .5761719 .19694011 .5546875 .14160156 .5546875 .08626302 .5546875 .05859375 .5761719 .05859375 .6191406 .05859375 .6621094 .08626302 .68359377 .14160156 .68359377M.05126953 0V.49169923C.106933597 .49169923 .16634114 .4961039 .22949219 .50491335V0H.05126953Z"/>
<path id="font_74_35" d="M.54589846 .017578125C.5022786 .0006510417 .4597982-.0078125 .41845704-.0078125 .35725913-.0078125 .3194987 .011230469 .30517579 .049316408 .27555339 .009277344 .23291016-.0107421879 .1772461-.0107421879 .073404949-.0107421879 .021484375 .03748576 .021484375 .13394165 .021484375 .20725505 .069010417 .2587382 .1640625 .2883911 .2513021 .31576539 .29492188 .3486786 .29492188 .38713075 .29492188 .43763734 .26985679 .46289063 .21972656 .46289063 .16178386 .46289063 .1328125 .43847657 .1328125 .38964845 .1328125 .37434898 .1373698 .35416667 .14648438 .32910157L.05810547 .3461914C.055826826 .36154176 .0546875 .37591044 .0546875 .3892975 .0546875 .46765647 .12597656 .50683596 .2685547 .50683596 .40397135 .50683596 .4716797 .47021485 .4716797 .39697267V.09814453C.4716797 .067871097 .48160807 .052734376 .50146487 .052734376 .5076497 .052734376 .51676437 .055989583 .5288086 .0625L.54589846 .017578125M.29345704 .29589845C.2823893 .2831726 .26953126 .27257286 .2548828 .26409913 .21809896 .24256389 .19970703 .20635478 .19970703 .1554718 .19970703 .09023539 .21240235 .057617189 .23779297 .057617189 .27490235 .057617189 .29345704 .09000651 .29345704 .15478516V.29589845Z"/>
<clipPath id="clip_75">
<path transform="matrix(1,0,0,-1,0,960)" d="M.000008047 0H540V960H.000008047Z" fill-rule="evenodd"/>
</clipPath>
<clipPath id="clip_76">
<path transform="matrix(1,0,0,-1,0,960)" d="M.000008047 0H540V960H.000008047Z" fill-rule="evenodd"/>
</clipPath>
<path id="font_74_22" d="M.057617189 0V.6669922H.34423829C.41878257 .6669922 .47835288 .65126547 .5229492 .619812 .5675456 .5883687 .58984377 .54625448 .58984377 .49346925 .58984377 .4126587 .5419922 .36003114 .44628907 .33558656 .49544273 .3173472 .5272624 .2973175 .54174807 .27549745 .5562337 .25368754 .56608077 .21135457 .57128909 .14849854 .57747396 .07359823 .59000656 .024098715 .6088867 0H.39892579C.38557945 .030924479 .37890626 .069498699 .37890626 .115722659L.3779297 .15527344 .37695313 .20507813C.37695313 .28190104 .34602867 .3203125 .2841797 .3203125H.25097657V0H.057617189M.25097657 .37597657H.29003907C.36328126 .37597657 .39990235 .41422526 .39990235 .49072267 .39990235 .56722006 .36328126 .60546877 .29003907 .60546877H.25097657V.37597657Z"/>
<path id="font_74_41" d="M.3701172 .4873047C.453125 .4518229 .4946289 .40022788 .4946289 .33251954 .4946289 .2879232 .47379557 .24983724 .4321289 .21826172 .39046226 .1866862 .34016929 .17089844 .28125 .17089844 .25846354 .17089844 .22770183 .17382813 .18896485 .1796875 .1665039 .16675823 .15527344 .15383403 .15527344 .14091492 .15527344 .12314352 .16910808 .11425781 .19677735 .11425781 .2039388 .11425781 .21842449 .114863079 .24023438 .11607361 .2952474 .11942037 .33528648 .12109375 .36035157 .12109375 .47884117 .12109375 .53808596 .076171878 .53808596-.013671875 .53808596-.122395839 .4399414-.17675781 .24365235-.17675781 .09749349-.17675781 .024414063-.14600118 .024414063-.084487918 .024414063-.049016317 .054036458-.024932862 .11328125-.012237549 .050130208 .0043640139 .018554688 .03187561 .018554688 .07029724 .018554688 .1181488 .056152345 .16030884 .13134766 .19677735 .06526693 .22351074 .032226564 .2689921 .032226564 .33322145 .032226564 .38213096 .052246095 .42313133 .092285159 .45622254 .13232422 .48931376 .18196614 .5058594 .24121094 .5058594 .26139323 .5058594 .2879232 .5035858 .32080079 .4990387 .3191732 .5104726 .31835938 .51946 .31835938 .526001 .31835938 .59069827 .35205079 .6230469 .4194336 .6230469 .47314454 .6230469 .5 .6003316 .5 .5549011 .5 .5202535 .48388673 .5029297 .45166017 .5029297 .44091798 .5029297 .42822267 .50660708 .41357423 .5139618 .40445964 .5186412 .3976237 .5211487 .3930664 .5214844 .37776695 .52246096 .3701172 .5110677 .3701172 .4873047M.2602539 .45703126C.22705078 .45703126 .21044922 .41577659 .21044922 .3332672 .21044922 .25757347 .22770183 .21972656 .26220704 .21972656 .29378257 .21972656 .3095703 .25334678 .3095703 .32058717 .3095703 .4115499 .2931315 .45703126 .2602539 .45703126M.2553711-.032226564C.17236328-.032226564 .13085938-.048258466 .13085938-.080322269 .13085938-.11206055 .1710612-.12792969 .25146485-.12792969 .3448893-.12792969 .39160157-.11011759 .39160157-.07449341 .39160157-.04631551 .3461914-.032226564 .2553711-.032226564Z"/>
<path id="font_74_46" d="M.22607422 .6767578V0H.047851564V.6669922C.09700521 .6669922 .15641277 .6702474 .22607422 .6767578Z"/>
<path id="font_74_49" d="M.2709961 .5048828C.4337565 .5048828 .5151367 .4189453 .5151367 .24707031 .5151367 .07519531 .4337565-.0107421879 .2709961-.0107421879 .107910159-.0107421879 .026367188 .07519531 .026367188 .24707031 .026367188 .4189453 .107910159 .5048828 .2709961 .5048828M.2705078 .4609375C.2311198 .4609375 .21142578 .38964845 .21142578 .24707031 .21142578 .10449219 .2311198 .033203126 .2705078 .033203126 .31022135 .033203126 .33007813 .10449219 .33007813 .24707031 .33007813 .38964845 .31022135 .4609375 .2705078 .4609375Z"/>
<path id="font_74_3" d="M0 0Z"/>
<path id="font_74_8" d="M.057617189 0V.6669922H.33398438C.53027346 .6669922 .62841799 .5555827 .62841799 .33276368 .62841799 .11092123 .5266927 0 .3232422 0H.057617189M.25097657 .055664064H.3017578C.34830729 .055664064 .38053385 .07574463 .3984375 .11590576 .41634117 .15607707 .42529298 .22868856 .42529298 .33374024 .42529298 .4387919 .41642253 .51131698 .39868165 .5513153 .38094078 .59132388 .3486328 .6113281 .3017578 .6113281H.25097657V.055664064Z"/>
<path id="font_74_56" d="M.44921876 .4921875 .2836914 0H.15966797L-.011230469 .4921875H.17871094L.28320313 .16259766 .390625 .4921875H.44921876Z"/>
<clipPath id="clip_77">
<path transform="matrix(1,0,0,-1,0,960)" d="M.000008047 0H540V960H.000008047Z" fill-rule="evenodd"/>
</clipPath>
<clipPath id="clip_78">
<path transform="matrix(1,0,0,-1,0,960)" d="M.000008047 0H540V960H.000008047Z" fill-rule="evenodd"/>
</clipPath>
<path id="font_49_61" d="M.5527344 .6669922 .16113281 .08203125H.19189453L.5756836 .6559906 .58447268 .6439972 .2084961 .08203125H.25732423L.29589845 .08300781H.31591798C.3426107 .08300781 .36791993 .08805338 .3918457 .09814453 .41577149 .10823568 .43391929 .12141927 .44628907 .13769531 .46158854 .15787761 .47460938 .18017578 .48535157 .20458985 .5126953 .13276164 .5416667 .07791138 .5722656 .040039064H.016601563L.37841798 .58322146 .36865235 .58348086 .30615235 .5839844C.24690755 .5839844 .20605469 .57763168 .18359375 .56492617 .16113281 .55223086 .14485677 .52611288 .13476563 .48657228L.12451172 .4977417C.13069661 .52522787 .14404297 .5480245 .16455078 .5661316 .17822266 .57840988 .19433594 .5865682 .21289063 .5906067 .23144531 .59465536 .26204429 .5966797 .3046875 .5966797 .33170573 .5966797 .35660807 .5962321 .37939454 .5953369L.38671876 .59487918 .40576173 .62257388C.38297526 .6241913 .3605143 .625 .3383789 .625 .2709961 .625 .22469075 .6220856 .19946289 .6162567 .17423503 .61042788 .15234375 .59779867 .13378906 .57836917 .11946615 .56315109 .1077474 .54259237 .09863281 .5166931L.09472656 .52500918C.07845052 .5625458 .055338544 .608078 .025390625 .66160586L.022460938 .6669922H.5527344M.62402346 .043533327 .5991211 0H.041503908L.03125 .0126953129H.5913086L.6088867 .043533327C.57145187 .08920797 .5419922 .14108277 .5205078 .19915772L.5371094 .1927948C.55371096 .14352925 .5813802 .09524536 .6201172 .047943117L.62402346 .043533327Z"/>
<clipPath id="clip_79">
<path transform="matrix(1,0,0,-1,0,960)" d="M-.000007629 0H540V960H-.000007629Z" fill-rule="evenodd"/>
</clipPath>
<clipPath id="clip_80">
<path transform="matrix(1,0,0,-1,0,960)" d="M0 .00018311H540V960.0002H0Z" fill-rule="evenodd"/>
</clipPath>
<clipPath id="clip_81">
<path transform="matrix(1,0,0,-1,0,960)" d="M0 .00024414H540V960.00027H0Z" fill-rule="evenodd"/>
</clipPath>
<clipPath id="clip_82">
<path transform="matrix(1,0,0,-1,0,960)" d="M0 .00018311H540V960.0002H0Z" fill-rule="evenodd"/>
</clipPath>
<clipPath id="clip_83">
<path transform="matrix(1,0,0,-1,0,960)" d="M0 .00024414H540V960.00027H0Z" fill-rule="evenodd"/>
</clipPath>
<clipPath id="clip_84">
<path transform="matrix(1,0,0,-1,0,960)" d="M0 .00018311H540V960.0002H0Z" fill-rule="evenodd"/>
</clipPath>
<clipPath id="clip_85">
<path transform="matrix(1,0,0,-1,0,960)" d="M-.000030518 .00024414H539.99996V960.00027H-.000030518Z" fill-rule="evenodd"/>
</clipPath>
<clipPath id="clip_86">
<path transform="matrix(1,0,0,-1,0,960)" d="M-.000030518 .00018311H539.99996V960.0002H-.000030518Z" fill-rule="evenodd"/>
</clipPath>
<clipPath id="clip_87">
<path transform="matrix(1,0,0,-1,0,960)" d="M.000015259 .00024414H540V960.00027H.000015259Z" fill-rule="evenodd"/>
</clipPath>
<clipPath id="clip_88">
<path transform="matrix(1,0,0,-1,0,960)" d="M-.000007629 0H540V960H-.000007629Z" fill-rule="evenodd"/>
</clipPath>
<clipPath id="clip_89">
<path transform="matrix(1,0,0,-1,0,960)" d="M0 .00018311H540V960.0002H0Z" fill-rule="evenodd"/>
</clipPath>
<clipPath id="clip_90">
<path transform="matrix(1,0,0,-1,0,960)" d="M-.000030518 .00018311H539.99996V960.0002H-.000030518Z" fill-rule="evenodd"/>
</clipPath>
<clipPath id="clip_91">
<path transform="matrix(1,0,0,-1,0,960)" d="M-.000007629 .00018311H540V960.0002H-.000007629Z" fill-rule="evenodd"/>
</clipPath>
<clipPath id="clip_92">
<path transform="matrix(1,0,0,-1,0,960)" d="M-.000030518 0H539.99996V960H-.000030518Z" fill-rule="evenodd"/>
</clipPath>
<clipPath id="clip_93">
<path transform="matrix(1,0,0,-1,0,960)" d="M0 .00024414H540V960.00027H0Z" fill-rule="evenodd"/>
</clipPath>
<clipPath id="clip_94">
<path transform="matrix(1,0,0,-1,0,960)" d="M-.000030518 0H539.99996V960H-.000030518Z" fill-rule="evenodd"/>
</clipPath>
<clipPath id="clip_95">
<path transform="matrix(1,0,0,-1,0,960)" d="M0 .00018311H540V960.0002H0Z" fill-rule="evenodd"/>
</clipPath>
<clipPath id="clip_96">
<path transform="matrix(1,0,0,-1,0,960)" d="M0 .00018311H540V960.0002H0Z" fill-rule="evenodd"/>
</clipPath>
</defs>
<g>
<g id="layer_1" data-name="Artifact">
<g clip-path="url(#clip_1)">
<path transform="matrix(1,0,0,-1,0,960)" d="M0 .000061035H540V960.00009H0Z" fill="#ffffff" fill-rule="evenodd"/>
</g>
</g>
<g id="layer_1" data-name="P">
<g clip-path="url(#clip_2)">
<path transform="matrix(1,0,0,-1,0,960)" d="M192.56 727.4C192.56 744.58 206.05 758.51 222.7 758.51 239.34 758.51 252.84 744.58 252.84 727.4 252.84 710.21 239.34 696.28 222.7 696.28 206.05 696.28 192.56 710.21 192.56 727.4Z" fill="#156082" fill-rule="evenodd"/>
</g>
<g clip-path="url(#clip_3)">
<path transform="matrix(1,0,0,-1,0,960)" stroke-width="1.5" stroke-linecap="butt" stroke-miterlimit="10" stroke-linejoin="miter" fill="none" stroke="#042433" d="M192.56 727.4C192.56 744.58 206.05 758.51 222.7 758.51 239.34 758.51 252.84 744.58 252.84 727.4 252.84 710.21 239.34 696.28 222.7 696.28 206.05 696.28 192.56 710.21 192.56 727.4Z"/>
</g>
</g>
<g id="layer_1" data-name="P">
<g clip-path="url(#clip_4)">
<path transform="matrix(1,0,0,-1,0,960)" d="M192.56 635.02C192.56 652.21 206.05 666.14 222.7 666.14 239.34 666.14 252.84 652.21 252.84 635.02 252.84 617.84 239.34 603.91 222.7 603.91 206.05 603.91 192.56 617.84 192.56 635.02Z" fill="#156082" fill-rule="evenodd"/>
</g>
<g clip-path="url(#clip_5)">
<path transform="matrix(1,0,0,-1,0,960)" stroke-width="1.5" stroke-linecap="butt" stroke-miterlimit="10" stroke-linejoin="miter" fill="none" stroke="#042433" d="M192.56 635.02C192.56 652.21 206.05 666.14 222.7 666.14 239.34 666.14 252.84 652.21 252.84 635.02 252.84 617.84 239.34 603.91 222.7 603.91 206.05 603.91 192.56 617.84 192.56 635.02Z"/>
</g>
</g>
<g id="layer_1" data-name="P">
<g clip-path="url(#clip_6)">
<path transform="matrix(1,0,0,-1,0,960)" d="M192.56 819.77C192.56 836.95 206.05 850.88 222.7 850.88 239.34 850.88 252.84 836.95 252.84 819.77 252.84 802.58 239.34 788.65 222.7 788.65 206.05 788.65 192.56 802.58 192.56 819.77Z" fill="#156082" fill-rule="evenodd"/>
</g>
<g clip-path="url(#clip_7)">
<path transform="matrix(1,0,0,-1,0,960)" stroke-width="1.5" stroke-linecap="butt" stroke-miterlimit="10" stroke-linejoin="miter" fill="none" stroke="#042433" d="M192.56 819.77C192.56 836.95 206.05 850.88 222.7 850.88 239.34 850.88 252.84 836.95 252.84 819.77 252.84 802.58 239.34 788.65 222.7 788.65 206.05 788.65 192.56 802.58 192.56 819.77Z"/>
</g>
</g>
<g id="layer_1" data-name="P">
<g clip-path="url(#clip_8)">
<path transform="matrix(1,0,0,-1,0,960)" d="M125.02 635.02C125.02 652.21 138.52 666.14 155.16 666.14 171.81 666.14 185.3 652.21 185.3 635.02 185.3 617.84 171.81 603.91 155.16 603.91 138.52 603.91 125.02 617.84 125.02 635.02Z" fill="#156082" fill-rule="evenodd"/>
</g>
<g clip-path="url(#clip_9)">
<path transform="matrix(1,0,0,-1,0,960)" stroke-width="1.5" stroke-linecap="butt" stroke-miterlimit="10" stroke-linejoin="miter" fill="none" stroke="#042433" d="M125.02 635.02C125.02 652.21 138.52 666.14 155.16 666.14 171.81 666.14 185.3 652.21 185.3 635.02 185.3 617.84 171.81 603.91 155.16 603.91 138.52 603.91 125.02 617.84 125.02 635.02Z"/>
</g>
</g>
<g id="layer_1" data-name="P">
<g clip-path="url(#clip_10)">
<path transform="matrix(1,0,0,-1,0,960)" d="M268.6 635.02C268.6 652.21 282.1 666.14 298.74 666.14 315.39 666.14 328.88 652.21 328.88 635.02 328.88 617.84 315.39 603.91 298.74 603.91 282.1 603.91 268.6 617.84 268.6 635.02Z" fill="#156082" fill-rule="evenodd"/>
</g>
<g clip-path="url(#clip_11)">
<path transform="matrix(1,0,0,-1,0,960)" stroke-width="1.5" stroke-linecap="butt" stroke-miterlimit="10" stroke-linejoin="miter" fill="none" stroke="#042433" d="M268.6 635.02C268.6 652.21 282.1 666.14 298.74 666.14 315.39 666.14 328.88 652.21 328.88 635.02 328.88 617.84 315.39 603.91 298.74 603.91 282.1 603.91 268.6 617.84 268.6 635.02Z"/>
</g>
</g>
<g id="layer_1" data-name="P">
<g clip-path="url(#clip_12)">
<path transform="matrix(1,0,0,-1,0,960)" d="M394.6 635.02C394.6 652.21 408.1 666.14 424.74 666.14 441.39 666.14 454.88 652.21 454.88 635.02 454.88 617.84 441.39 603.91 424.74 603.91 408.1 603.91 394.6 617.84 394.6 635.02Z" fill="#156082" fill-rule="evenodd"/>
</g>
<g clip-path="url(#clip_13)">
<path transform="matrix(1,0,0,-1,0,960)" stroke-width="1.5" stroke-linecap="butt" stroke-miterlimit="10" stroke-linejoin="miter" fill="none" stroke="#042433" d="M394.6 635.02C394.6 652.21 408.1 666.14 424.74 666.14 441.39 666.14 454.88 652.21 454.88 635.02 454.88 617.84 441.39 603.91 424.74 603.91 408.1 603.91 394.6 617.84 394.6 635.02Z"/>
</g>
</g>
<g id="layer_1" data-name="P">
<g clip-path="url(#clip_14)">
<path transform="matrix(1,0,0,-1,0,960)" d="M125.02 411.54C125.02 428.72 138.52 442.65 155.16 442.65 171.81 442.65 185.3 428.72 185.3 411.54 185.3 394.35 171.81 380.42 155.16 380.42 138.52 380.42 125.02 394.35 125.02 411.54Z" fill="#156082" fill-rule="evenodd"/>
</g>
<g clip-path="url(#clip_15)">
<path transform="matrix(1,0,0,-1,0,960)" stroke-width="1.5" stroke-linecap="butt" stroke-miterlimit="10" stroke-linejoin="miter" fill="none" stroke="#042433" d="M125.02 411.54C125.02 428.72 138.52 442.65 155.16 442.65 171.81 442.65 185.3 428.72 185.3 411.54 185.3 394.35 171.81 380.42 155.16 380.42 138.52 380.42 125.02 394.35 125.02 411.54Z"/>
</g>
</g>
<g id="layer_1" data-name="P">
<g clip-path="url(#clip_16)">
<path transform="matrix(1,0,0,-1,0,960)" d="M44.372 525.4C44.372 542.58 57.866 556.51 74.512 556.51 91.157 556.51 104.65 542.58 104.65 525.4 104.65 508.21 91.157 494.28 74.512 494.28 57.866 494.28 44.372 508.21 44.372 525.4Z" fill="#156082" fill-rule="evenodd"/>
</g>
<g clip-path="url(#clip_17)">
<path transform="matrix(1,0,0,-1,0,960)" stroke-width="1.5" stroke-linecap="butt" stroke-miterlimit="10" stroke-linejoin="miter" fill="none" stroke="#042433" d="M44.372 525.4C44.372 542.58 57.866 556.51 74.512 556.51 91.157 556.51 104.65 542.58 104.65 525.4 104.65 508.21 91.157 494.28 74.512 494.28 57.866 494.28 44.372 508.21 44.372 525.4Z"/>
</g>
</g>
<g id="layer_1" data-name="P">
<g clip-path="url(#clip_18)">
<path transform="matrix(1,0,0,-1,0,960)" d="M192.56 411.54C192.56 428.72 206.05 442.65 222.7 442.65 239.34 442.65 252.84 428.72 252.84 411.54 252.84 394.35 239.34 380.42 222.7 380.42 206.05 380.42 192.56 394.35 192.56 411.54Z" fill="#156082" fill-rule="evenodd"/>
</g>
<g clip-path="url(#clip_19)">
<path transform="matrix(1,0,0,-1,0,960)" stroke-width="1.5" stroke-linecap="butt" stroke-miterlimit="10" stroke-linejoin="miter" fill="none" stroke="#042433" d="M192.56 411.54C192.56 428.72 206.05 442.65 222.7 442.65 239.34 442.65 252.84 428.72 252.84 411.54 252.84 394.35 239.34 380.42 222.7 380.42 206.05 380.42 192.56 394.35 192.56 411.54Z"/>
</g>
</g>
<g id="layer_1" data-name="P">
<g clip-path="url(#clip_20)">
<path transform="matrix(1,0,0,-1,0,960)" d="M268.6 411.54C268.6 428.72 282.1 442.65 298.74 442.65 315.39 442.65 328.88 428.72 328.88 411.54 328.88 394.35 315.39 380.42 298.74 380.42 282.1 380.42 268.6 394.35 268.6 411.54Z" fill="#156082" fill-rule="evenodd"/>
</g>
<g clip-path="url(#clip_21)">
<path transform="matrix(1,0,0,-1,0,960)" stroke-width="1.5" stroke-linecap="butt" stroke-miterlimit="10" stroke-linejoin="miter" fill="none" stroke="#042433" d="M268.6 411.54C268.6 428.72 282.1 442.65 298.74 442.65 315.39 442.65 328.88 428.72 328.88 411.54 328.88 394.35 315.39 380.42 298.74 380.42 282.1 380.42 268.6 394.35 268.6 411.54Z"/>
</g>
</g>
<g id="layer_1" data-name="P">
<g clip-path="url(#clip_22)">
<path transform="matrix(1,0,0,-1,0,960)" d="M342 525.4C342 542.58 355.49 556.51 372.14 556.51 388.79 556.51 402.28 542.58 402.28 525.4 402.28 508.21 388.79 494.28 372.14 494.28 355.49 494.28 342 508.21 342 525.4Z" fill="#156082" fill-rule="evenodd"/>
</g>
<g clip-path="url(#clip_23)">
<path transform="matrix(1,0,0,-1,0,960)" stroke-width="1.5" stroke-linecap="butt" stroke-miterlimit="10" stroke-linejoin="miter" fill="none" stroke="#042433" d="M342 525.4C342 542.58 355.49 556.51 372.14 556.51 388.79 556.51 402.28 542.58 402.28 525.4 402.28 508.21 388.79 494.28 372.14 494.28 355.49 494.28 342 508.21 342 525.4Z"/>
</g>
</g>
<g id="layer_1" data-name="P">
<g clip-path="url(#clip_24)">
<path transform="matrix(1,0,0,-1,0,960)" d="M441 525.4C441 542.58 454.49 556.51 471.14 556.51 487.79 556.51 501.28 542.58 501.28 525.4 501.28 508.21 487.79 494.28 471.14 494.28 454.49 494.28 441 508.21 441 525.4Z" fill="#156082" fill-rule="evenodd"/>
</g>
<g clip-path="url(#clip_25)">
<path transform="matrix(1,0,0,-1,0,960)" stroke-width="1.5" stroke-linecap="butt" stroke-miterlimit="10" stroke-linejoin="miter" fill="none" stroke="#042433" d="M441 525.4C441 542.58 454.49 556.51 471.14 556.51 487.79 556.51 501.28 542.58 501.28 525.4 501.28 508.21 487.79 494.28 471.14 494.28 454.49 494.28 441 508.21 441 525.4Z"/>
</g>
</g>
<g id="layer_1" data-name="P">
<g clip-path="url(#clip_26)">
<path transform="matrix(1,0,0,-1,0,960)" d="M124.88 134.14C124.88 151.33 138.38 165.26 155.02 165.26 171.67 165.26 185.16 151.33 185.16 134.14 185.16 116.96 171.67 103.03 155.02 103.03 138.38 103.03 124.88 116.96 124.88 134.14Z" fill="#156082" fill-rule="evenodd"/>
</g>
<g clip-path="url(#clip_27)">
<path transform="matrix(1,0,0,-1,0,960)" stroke-width="1.5" stroke-linecap="butt" stroke-miterlimit="10" stroke-linejoin="miter" fill="none" stroke="#042433" d="M124.88 134.14C124.88 151.33 138.38 165.26 155.02 165.26 171.67 165.26 185.16 151.33 185.16 134.14 185.16 116.96 171.67 103.03 155.02 103.03 138.38 103.03 124.88 116.96 124.88 134.14Z"/>
</g>
</g>
<g id="layer_1" data-name="P">
<g clip-path="url(#clip_28)">
<path transform="matrix(1,0,0,-1,0,960)" d="M192.42 134.14C192.42 151.33 205.91 165.26 222.56 165.26 239.2 165.26 252.7 151.33 252.7 134.14 252.7 116.96 239.2 103.03 222.56 103.03 205.91 103.03 192.42 116.96 192.42 134.14Z" fill="#156082" fill-rule="evenodd"/>
</g>
<g clip-path="url(#clip_29)">
<path transform="matrix(1,0,0,-1,0,960)" stroke-width="1.5" stroke-linecap="butt" stroke-miterlimit="10" stroke-linejoin="miter" fill="none" stroke="#042433" d="M192.42 134.14C192.42 151.33 205.91 165.26 222.56 165.26 239.2 165.26 252.7 151.33 252.7 134.14 252.7 116.96 239.2 103.03 222.56 103.03 205.91 103.03 192.42 116.96 192.42 134.14Z"/>
</g>
</g>
<g id="layer_1" data-name="P">
<g clip-path="url(#clip_30)">
<path transform="matrix(1,0,0,-1,0,960)" d="M268.53 134.14C268.53 151.33 282.03 165.26 298.67 165.26 315.32 165.26 328.81 151.33 328.81 134.14 328.81 116.96 315.32 103.03 298.67 103.03 282.03 103.03 268.53 116.96 268.53 134.14Z" fill="#156082" fill-rule="evenodd"/>
</g>
<g clip-path="url(#clip_31)">
<path transform="matrix(1,0,0,-1,0,960)" stroke-width="1.5" stroke-linecap="butt" stroke-miterlimit="10" stroke-linejoin="miter" fill="none" stroke="#042433" d="M268.53 134.14C268.53 151.33 282.03 165.26 298.67 165.26 315.32 165.26 328.81 151.33 328.81 134.14 328.81 116.96 315.32 103.03 298.67 103.03 282.03 103.03 268.53 116.96 268.53 134.14Z"/>
</g>
</g>
<g id="layer_1" data-name="P">
<g clip-path="url(#clip_32)">
<path transform="matrix(1,0,0,-1,0,960)" d="M192.42 318.89C192.42 336.07 205.91 350 222.56 350 239.2 350 252.7 336.07 252.7 318.89 252.7 301.7 239.2 287.77 222.56 287.77 205.91 287.77 192.42 301.7 192.42 318.89Z" fill="#156082" fill-rule="evenodd"/>
</g>
<g clip-path="url(#clip_33)">
<path transform="matrix(1,0,0,-1,0,960)" stroke-width="1.5" stroke-linecap="butt" stroke-miterlimit="10" stroke-linejoin="miter" fill="none" stroke="#042433" d="M192.42 318.89C192.42 336.07 205.91 350 222.56 350 239.2 350 252.7 336.07 252.7 318.89 252.7 301.7 239.2 287.77 222.56 287.77 205.91 287.77 192.42 301.7 192.42 318.89Z"/>
</g>
</g>
<g id="layer_1" data-name="P">
<g clip-path="url(#clip_34)">
<path transform="matrix(1,0,0,-1,0,960)" d="M192.42 228.66C192.42 245.84 205.91 259.77 222.56 259.77 239.2 259.77 252.7 245.84 252.7 228.66 252.7 211.47 239.2 197.54 222.56 197.54 205.91 197.54 192.42 211.47 192.42 228.66Z" fill="#156082" fill-rule="evenodd"/>
</g>
<g clip-path="url(#clip_35)">
<path transform="matrix(1,0,0,-1,0,960)" stroke-width="1.5" stroke-linecap="butt" stroke-miterlimit="10" stroke-linejoin="miter" fill="none" stroke="#042433" d="M192.42 228.66C192.42 245.84 205.91 259.77 222.56 259.77 239.2 259.77 252.7 245.84 252.7 228.66 252.7 211.47 239.2 197.54 222.56 197.54 205.91 197.54 192.42 211.47 192.42 228.66Z"/>
</g>
</g>
<g id="layer_1" data-name="P">
<g clip-path="url(#clip_36)">
<path transform="matrix(1,0,0,-1,0,960)" d="M94.744 228.66C94.744 245.84 108.24 259.77 124.88 259.77 141.53 259.77 155.02 245.84 155.02 228.66 155.02 211.47 141.53 197.54 124.88 197.54 108.24 197.54 94.744 211.47 94.744 228.66Z" fill="#156082" fill-rule="evenodd"/>
</g>
<g clip-path="url(#clip_37)">
<path transform="matrix(1,0,0,-1,0,960)" stroke-width="1.5" stroke-linecap="butt" stroke-miterlimit="10" stroke-linejoin="miter" fill="none" stroke="#042433" d="M94.744 228.66C94.744 245.84 108.24 259.77 124.88 259.77 141.53 259.77 155.02 245.84 155.02 228.66 155.02 211.47 141.53 197.54 124.88 197.54 108.24 197.54 94.744 211.47 94.744 228.66Z"/>
</g>
</g>
<g id="layer_1" data-name="P">
<g clip-path="url(#clip_38)">
<path transform="matrix(1,0,0,-1,0,960)" d="M44.372 318.89C44.372 336.07 57.866 350 74.512 350 91.157 350 104.65 336.07 104.65 318.89 104.65 301.7 91.157 287.77 74.512 287.77 57.866 287.77 44.372 301.7 44.372 318.89Z" fill="#156082" fill-rule="evenodd"/>
</g>
<g clip-path="url(#clip_39)">
<path transform="matrix(1,0,0,-1,0,960)" stroke-width="1.5" stroke-linecap="butt" stroke-miterlimit="10" stroke-linejoin="miter" fill="none" stroke="#042433" d="M44.372 318.89C44.372 336.07 57.866 350 74.512 350 91.157 350 104.65 336.07 104.65 318.89 104.65 301.7 91.157 287.77 74.512 287.77 57.866 287.77 44.372 301.7 44.372 318.89Z"/>
</g>
</g>
<g id="layer_1" data-name="P">
<g clip-path="url(#clip_40)">
<path transform="matrix(1,0,0,-1,0,960)" d="M175.81 525.42C175.81 553.31 196.9 575.91 222.91 575.91 248.92 575.91 270 553.31 270 525.42 270 497.54 248.92 474.94 222.91 474.94 196.9 474.94 175.81 497.54 175.81 525.42Z" fill="#156082" fill-rule="evenodd"/>
</g>
<g clip-path="url(#clip_41)">
<path transform="matrix(1,0,0,-1,0,960)" stroke-width="1.5" stroke-linecap="butt" stroke-miterlimit="10" stroke-linejoin="miter" fill="none" stroke="#042433" d="M175.81 525.42C175.81 553.31 196.9 575.91 222.91 575.91 248.92 575.91 270 553.31 270 525.42 270 497.54 248.92 474.94 222.91 474.94 196.9 474.94 175.81 497.54 175.81 525.42Z"/>
</g>
</g>
<g id="layer_1" data-name="P">
<g clip-path="url(#clip_42)">
<path transform="matrix(1,0,0,-1,0,960)" d="M441 411.54C441 428.72 454.49 442.65 471.14 442.65 487.79 442.65 501.28 428.72 501.28 411.54 501.28 394.35 487.79 380.42 471.14 380.42 454.49 380.42 441 394.35 441 411.54Z" fill="#156082" fill-rule="evenodd"/>
</g>
<g clip-path="url(#clip_43)">
<path transform="matrix(1,0,0,-1,0,960)" stroke-width="1.5" stroke-linecap="butt" stroke-miterlimit="10" stroke-linejoin="miter" fill="none" stroke="#042433" d="M441 411.54C441 428.72 454.49 442.65 471.14 442.65 487.79 442.65 501.28 428.72 501.28 411.54 501.28 394.35 487.79 380.42 471.14 380.42 454.49 380.42 441 394.35 441 411.54Z"/>
</g>
</g>
<g id="layer_1" data-name="P">
<g clip-path="url(#clip_44)">
<path transform="matrix(1,0,0,-1,0,960)" d="M441 315.4C441 332.58 454.49 346.51 471.14 346.51 487.79 346.51 501.28 332.58 501.28 315.4 501.28 298.21 487.79 284.28 471.14 284.28 454.49 284.28 441 298.21 441 315.4Z" fill="#156082" fill-rule="evenodd"/>
</g>
<g clip-path="url(#clip_45)">
<path transform="matrix(1,0,0,-1,0,960)" stroke-width="1.5" stroke-linecap="butt" stroke-miterlimit="10" stroke-linejoin="miter" fill="none" stroke="#042433" d="M441 315.4C441 332.58 454.49 346.51 471.14 346.51 487.79 346.51 501.28 332.58 501.28 315.4 501.28 298.21 487.79 284.28 471.14 284.28 454.49 284.28 441 298.21 441 315.4Z"/>
</g>
</g>
<g id="layer_1" data-name="P">
<g clip-path="url(#clip_46)">
<path transform="matrix(1,0,0,-1,0,960)" d="M372.14 111.07H482.23V213.20999H372.14Z" fill="#156082" fill-rule="evenodd"/>
</g>
<g clip-path="url(#clip_47)">
<path transform="matrix(1,0,0,-1,0,960)" stroke-width="1.5" stroke-linecap="butt" stroke-miterlimit="10" stroke-linejoin="miter" fill="none" stroke="#042433" d="M372.14 111.07H482.23V213.20999H372.14Z"/>
</g>
</g>
<g id="layer_1" data-name="Span">
<g clip-path="url(#clip_48)">
<use data-text="H" xlink:href="#font_49_43" transform="matrix(24,0,0,-24,214.32,193.84998)"/>
</g>
</g>
<g id="layer_1" data-name="Span">
<g clip-path="url(#clip_50)">
<use data-text="A" xlink:href="#font_49_36" transform="matrix(26.064,0,0,-26.064,64.152,494.33)"/>
</g>
</g>
<g id="layer_1" data-name="Span">
<g clip-path="url(#clip_51)">
<use data-text="G" xlink:href="#font_49_42" transform="matrix(24,0,0,-24,219.12,287.33003)"/>
</g>
</g>
<g id="layer_1" data-name="Span">
<g clip-path="url(#clip_52)">
<use data-text="F" xlink:href="#font_49_41" transform="matrix(24.96,0,0,-24.96,291,379.75)"/>
</g>
</g>
<g id="layer_1" data-name="Span">
<g clip-path="url(#clip_53)">
<use data-text="E" xlink:href="#font_49_40" transform="matrix(24.96,0,0,-24.96,146.28,379.75)"/>
</g>
</g>
<g id="layer_1" data-name="Span">
<g clip-path="url(#clip_54)">
<use data-text="I" xlink:href="#font_49_44" transform="matrix(24.96,0,0,-24.96,219.62,376.78004)"/>
</g>
</g>
<g id="layer_1" data-name="Span">
<g clip-path="url(#clip_55)">
<use data-text="J" xlink:href="#font_49_45" transform="matrix(24.96,0,0,-24.96,415.18,382.27003)"/>
</g>
</g>
<g id="layer_1" data-name="Span">
<g clip-path="url(#clip_56)">
<use data-text="B" xlink:href="#font_49_37" transform="matrix(26.04,0,0,-26.04,214.32,511.37)"/>
</g>
</g>
<g id="layer_1" data-name="Span">
<g clip-path="url(#clip_57)">
<use data-text="C" xlink:href="#font_49_38" transform="matrix(26.04,0,0,-26.04,365.18,491.98)"/>
</g>
</g>
<g id="layer_1" data-name="Span">
<g clip-path="url(#clip_58)">
<use data-text="D" xlink:href="#font_49_39" transform="matrix(26.04,0,0,-26.04,458.4,491.04)"/>
</g>
</g>
<g id="layer_1" data-name="Span">
<g clip-path="url(#clip_59)">
<use data-text="K" xlink:href="#font_49_46" transform="matrix(27,0,0,-27,146.28,604.15)"/>
</g>
</g>
<g id="layer_1" data-name="Span">
<g clip-path="url(#clip_60)">
<use data-text="O" xlink:href="#font_49_50" transform="matrix(27,0,0,-27,218.28,604.44)"/>
</g>
</g>
<g id="layer_1" data-name="Span">
<g clip-path="url(#clip_61)">
<use data-text="L" xlink:href="#font_49_47" transform="matrix(27,0,0,-27,286.61,604.15)"/>
</g>
</g>
<g id="layer_1" data-name="Span">
<g clip-path="url(#clip_62)">
<use data-text="W" xlink:href="#font_49_58" transform="matrix(27.96,0,0,-27.96,63.192,696.19)"/>
</g>
</g>
<g id="layer_1" data-name="Span">
<g clip-path="url(#clip_63)">
<use data-text="M" xlink:href="#font_49_48" transform="matrix(27.96,0,0,-27.96,212.78,693.89)"/>
</g>
</g>
<g id="layer_1" data-name="Span">
<g clip-path="url(#clip_64)">
<use data-text="X" xlink:href="#font_49_59" transform="matrix(27,0,0,-27,449.86,604.15)"/>
</g>
</g>
<g id="layer_1" data-name="Span">
<g clip-path="url(#clip_65)">
<use data-text="Y" xlink:href="#font_49_60" transform="matrix(27.96,0,0,-27.96,453.34,702.31)"/>
</g>
</g>
<g id="layer_1" data-name="P">
<g clip-path="url(#clip_66)">
<path transform="matrix(1,0,0,-1,0,960)" d="M394.81 772.42H504.9V874.56H394.81Z" fill="#156082" fill-rule="evenodd"/>
</g>
<g clip-path="url(#clip_67)">
<path transform="matrix(1,0,0,-1,0,960)" stroke-width="1.5" stroke-linecap="butt" stroke-miterlimit="10" stroke-linejoin="miter" fill="none" stroke="#042433" d="M394.81 772.42H504.9V874.56H394.81Z"/>
</g>
</g>
<g id="layer_1" data-name="Span">
<g clip-path="url(#clip_68)">
<use data-text="P" xlink:href="#font_49_51" transform="matrix(29.04,0,0,-29.04,110.47,789.46)"/>
</g>
</g>
<g id="layer_1" data-name="Span">
<g clip-path="url(#clip_69)">
<use data-text="N" xlink:href="#font_49_49" transform="matrix(29.04,0,0,-29.04,218.02,786.98)"/>
</g>
</g>
<g id="layer_1" data-name="Span">
<g clip-path="url(#clip_70)">
<use data-text="Q" xlink:href="#font_49_52" transform="matrix(29.04,0,0,-29.04,145.27,888.528)"/>
</g>
</g>
<g id="layer_1" data-name="Span">
<g clip-path="url(#clip_71)">
<use data-text="R" xlink:href="#font_49_53" transform="matrix(29.04,0,0,-29.04,214.32,887.976)"/>
</g>
</g>
<g id="layer_1" data-name="Span">
<g clip-path="url(#clip_72)">
<use data-text="S" xlink:href="#font_49_54" transform="matrix(29.04,0,0,-29.04,286.32,888.528)"/>
</g>
</g>
<g id="layer_1" data-name="Span">
<g clip-path="url(#clip_73)">
<use data-text="A" xlink:href="#font_74_5" transform="matrix(26.04,0,0,-26.04,369.29,871.968)"/>
<use data-text="u" xlink:href="#font_74_55" transform="matrix(26.04,0,0,-26.04,383.37767,871.968)"/>
<use data-text="s" xlink:href="#font_74_53" transform="matrix(26.04,0,0,-26.04,398.09025,871.968)"/>
<use data-text="e" xlink:href="#font_74_39" transform="matrix(26.04,0,0,-26.04,410.51133,871.968)"/>
<use data-text="n" xlink:href="#font_74_48" transform="matrix(26.04,0,0,-26.04,423.5313,871.968)"/>
<use data-text="c" xlink:href="#font_74_37" transform="matrix(26.04,0,0,-26.04,438.2439,871.968)"/>
<use data-text="i" xlink:href="#font_74_43" transform="matrix(26.04,0,0,-26.04,450.95143,871.968)"/>
<use data-text="a" xlink:href="#font_74_35" transform="matrix(26.04,0,0,-26.04,458.26866,871.968)"/>
</g>
</g>
<g id="layer_1" data-name="Span">
<g clip-path="url(#clip_75)">
<use data-text="s" xlink:href="#font_74_53" transform="matrix(26.04,0,0,-26.04,472.15,871.968)"/>
</g>
</g>
<g id="layer_1" data-name="Span">
<g clip-path="url(#clip_76)">
<use data-text="R" xlink:href="#font_74_22" transform="matrix(15.96,0,0,-15.96,399.79,202.65998)"/>
<use data-text="e" xlink:href="#font_74_39" transform="matrix(15.96,0,0,-15.96,409.87675,202.65998)"/>
<use data-text="g" xlink:href="#font_74_41" transform="matrix(15.96,0,0,-15.96,417.7929,202.65998)"/>
<use data-text="a" xlink:href="#font_74_35" transform="matrix(15.96,0,0,-15.96,426.34748,202.65998)"/>
<use data-text="l" xlink:href="#font_74_46" transform="matrix(15.96,0,0,-15.96,434.7105,202.65998)"/>
<use data-text="o" xlink:href="#font_74_49" transform="matrix(15.96,0,0,-15.96,439.03569,202.65998)"/>
<use data-text=" " xlink:href="#font_74_3" transform="matrix(15.96,0,0,-15.96,447.67005,202.65998)"/>
<use data-text="D" xlink:href="#font_74_8" transform="matrix(15.96,0,0,-15.96,452.8251,202.65998)"/>
<use data-text="i" xlink:href="#font_74_43" transform="matrix(15.96,0,0,-15.96,463.29487,202.65998)"/>
<use data-text="v" xlink:href="#font_74_56" transform="matrix(15.96,0,0,-15.96,467.69984,202.65998)"/>
<use data-text="i" xlink:href="#font_74_43" transform="matrix(15.96,0,0,-15.96,474.6903,202.65998)"/>
<use data-text="n" xlink:href="#font_74_48" transform="matrix(15.96,0,0,-15.96,479.09529,202.65998)"/>
</g>
</g>
<g id="layer_1" data-name="Span">
<g clip-path="url(#clip_77)">
<use data-text="o" xlink:href="#font_74_49" transform="matrix(15.96,0,0,-15.96,488.14,202.65998)"/>
</g>
</g>
<g id="layer_1" data-name="Span">
<g clip-path="url(#clip_78)">
<use data-text="z" xlink:href="#font_49_61" transform="matrix(24,0,0,-24,441.67,225.35999)"/>
</g>
</g>
<g id="layer_1" data-name="P">
<g clip-path="url(#clip_79)">
<path transform="matrix(1,0,0,-1,0,960)" stroke-width="1.5" stroke-linecap="butt" stroke-miterlimit="10" stroke-linejoin="miter" fill="none" stroke="#156082" d="M74.512 556.51 192.56 819.77"/>
</g>
</g>
<g id="layer_1" data-name="P">
<g clip-path="url(#clip_80)">
<path transform="matrix(1,0,0,-1,0,960)" stroke-width="1.5" stroke-linecap="butt" stroke-miterlimit="10" stroke-linejoin="miter" fill="none" stroke="#156082" d="M252.03 829.31 380.02 553.85"/>
</g>
</g>
<g id="layer_1" data-name="P">
<g clip-path="url(#clip_81)">
<path transform="matrix(1,0,0,-1,0,960)" stroke-width="1.5" stroke-linecap="butt" stroke-miterlimit="10" stroke-linejoin="miter" fill="none" stroke="#156082" d="M249.82 831.16 403.43 657.03"/>
</g>
</g>
<g id="layer_1" data-name="P">
<g clip-path="url(#clip_82)">
<path transform="matrix(1,0,0,-1,0,960)" stroke-width="1.5" stroke-linecap="butt" stroke-miterlimit="10" stroke-linejoin="miter" fill="none" stroke="#156082" d="M446.06 613.02 471.14 556.51"/>
</g>
</g>
<g id="layer_1" data-name="P">
<g clip-path="url(#clip_83)">
<path transform="matrix(1,0,0,-1,0,960)" stroke-width="1.5" stroke-linecap="butt" stroke-miterlimit="10" stroke-linejoin="miter" fill="none" stroke="#156082" d="M474.7 494.28V442.65"/>
</g>
</g>
<g id="layer_1" data-name="P">
<g clip-path="url(#clip_84)">
<path transform="matrix(1,0,0,-1,0,960)" stroke-width="1.5" stroke-linecap="butt" stroke-miterlimit="10" stroke-linejoin="miter" fill="none" stroke="#156082" d="M473.23 385.44V345.46"/>
</g>
</g>
<g id="layer_1" data-name="P">
<g clip-path="url(#clip_85)">
<path transform="matrix(1,0,0,-1,0,960)" stroke-width="1.5" stroke-linecap="butt" stroke-miterlimit="10" stroke-linejoin="miter" fill="none" stroke="#156082" d="M277.43 613.02 242.86 566.61"/>
</g>
</g>
<g id="layer_1" data-name="P">
<g clip-path="url(#clip_86)">
<path transform="matrix(1,0,0,-1,0,960)" stroke-width="1.5" stroke-linecap="butt" stroke-miterlimit="10" stroke-linejoin="miter" fill="none" stroke="#156082" d="M320.06 613.02 359.68 551.45"/>
</g>
</g>
<g id="layer_1" data-name="P">
<g clip-path="url(#clip_87)">
<path transform="matrix(1,0,0,-1,0,960)" stroke-width="1.5" stroke-linecap="butt" stroke-miterlimit="10" stroke-linejoin="miter" fill="none" stroke="#156082" d="M133.85 613.02 94.744 549.77"/>
</g>
</g>
<g id="layer_1" data-name="P">
<g clip-path="url(#clip_88)">
<path transform="matrix(1,0,0,-1,0,960)" stroke-width="1.5" stroke-linecap="butt" stroke-miterlimit="10" stroke-linejoin="miter" fill="none" stroke="#156082" d="M104.65 525.4 175.81 525.42"/>
</g>
</g>
<g id="layer_1" data-name="P">
<g clip-path="url(#clip_89)">
<path transform="matrix(1,0,0,-1,0,960)" stroke-width="1.5" stroke-linecap="butt" stroke-miterlimit="10" stroke-linejoin="miter" fill="none" stroke="#156082" d="M270 525.42 342 525.4"/>
</g>
</g>
<g id="layer_1" data-name="P">
<g clip-path="url(#clip_90)">
<path transform="matrix(1,0,0,-1,0,960)" stroke-width="1.5" stroke-linecap="butt" stroke-miterlimit="10" stroke-linejoin="miter" fill="none" stroke="#156082" d="M402.28 525.4H441"/>
</g>
</g>
<g id="layer_1" data-name="P">
<g clip-path="url(#clip_91)">
<path transform="matrix(1,0,0,-1,0,960)" stroke-width="1.5" stroke-linecap="butt" stroke-miterlimit="10" stroke-linejoin="miter" fill="none" stroke="#156082" d="M100.3 510.88 155.16 442.65"/>
</g>
</g>
<g id="layer_1" data-name="P">
<g clip-path="url(#clip_92)">
<path transform="matrix(1,0,0,-1,0,960)" stroke-width="1.5" stroke-linecap="butt" stroke-miterlimit="10" stroke-linejoin="miter" fill="none" stroke="#156082" d="M155.16 442.65 196.6 483.54"/>
</g>
</g>
<g id="layer_1" data-name="P">
<g clip-path="url(#clip_93)">
<path transform="matrix(1,0,0,-1,0,960)" stroke-width="1.5" stroke-linecap="butt" stroke-miterlimit="10" stroke-linejoin="miter" fill="none" stroke="#156082" d="M256.21 489.72 298.74 442.65"/>
</g>
</g>
<g id="layer_1" data-name="P">
<g clip-path="url(#clip_94)">
<path transform="matrix(1,0,0,-1,0,960)" stroke-width="1.5" stroke-linecap="butt" stroke-miterlimit="10" stroke-linejoin="miter" fill="none" stroke="#156082" d="M298.74 442.65 350.83 503.4"/>
</g>
</g>
<g id="layer_1" data-name="P">
<g clip-path="url(#clip_95)">
<path transform="matrix(1,0,0,-1,0,960)" stroke-width="1.5" stroke-linecap="butt" stroke-miterlimit="10" stroke-linejoin="miter" fill="none" stroke="#156082" d="M176.47 389.54 210.77 345.46"/>
</g>
</g>
<g id="layer_1" data-name="P">
<g clip-path="url(#clip_96)">
<path transform="matrix(1,0,0,-1,0,960)" stroke-width="1.5" stroke-linecap="butt" stroke-miterlimit="10" stroke-linejoin="miter" fill="none" stroke="#156082" d="M273.98 394.1 233.16 340.27"/>
</g>
</g>
</g>
</svg>
